<svg xmlns="http://www.w3.org/2000/svg" width="24" height="22" viewBox="0 0 24 22" fill="none">
    <g filter="url(#filter0_d_1380_524)">
        <path d="M6.66658 -1.78456e-05H13.2915C13.3095 0.0215567 13.3238 0.0454241 13.3344 0.0713761C13.3587 0.32558 13.3638 0.578951 13.3297 0.803034C13.2282 0.900901 13.1348 0.891 13.0462 0.891104C10.993 0.892459 8.93977 0.892563 6.88657 0.891208C6.81074 0.891208 6.73293 0.895898 6.66543 0.849205C6.56345 0.566027 6.56022 0.282848 6.66668 -0.00012207L6.66658 -1.78456e-05Z" fill="#292524"/>
        <path d="M20.0003 10.8331C20.0003 11.6565 20.0003 12.4798 20 13.3032C20 13.3089 19.9948 13.3147 19.992 13.3205C19.9868 13.3246 19.9817 13.3325 19.9765 13.3325C19.7067 13.3332 19.4368 13.3331 19.1671 13.3331C19.1578 13.3227 19.1486 13.3123 19.1392 13.3021C19.095 13.2185 19.1005 13.1271 19.1004 13.0373C19.0992 11.0252 19.0995 9.01306 19.1004 7.001C19.1004 6.90448 19.0929 6.80568 19.1449 6.71678C19.2767 6.60505 19.4349 6.66018 19.5818 6.65226C19.6981 6.6459 19.8162 6.63882 19.9322 6.66581C19.957 6.67644 19.9799 6.69062 20.0005 6.70823V10.8331H20.0003Z" fill="#292524"/>
        <path d="M6.66675 0.833299C8.86453 0.833299 11.0622 0.833299 13.26 0.832987C13.2659 0.832987 13.272 0.828609 13.2779 0.826212C13.2825 0.821209 13.2911 0.816206 13.2911 0.811099C13.2917 0.554602 13.2917 0.298105 13.2917 0.0415039C13.3887 0.0508841 13.389 0.131346 13.3907 0.194819C13.3962 0.40775 13.4195 0.621619 13.3728 0.833403C13.3623 0.859355 13.3456 0.880617 13.3235 0.89771C13.2067 0.958577 13.0799 0.940755 12.9564 0.940859C11.0035 0.942006 9.05046 0.941276 7.09758 0.942527C6.98904 0.942527 6.8757 0.922307 6.76435 0.99047C6.71112 1.12461 6.74352 1.27167 6.73268 1.41456C6.72508 1.51639 6.7406 1.62645 6.63717 1.69618C6.28175 1.75944 5.92332 1.71754 5.56635 1.72171C5.37677 1.724 5.18073 1.76569 4.99605 1.68075C4.90021 1.39778 4.89271 1.11523 5.00021 0.833195H5.83353C6.11134 0.730117 6.38904 0.730117 6.66685 0.833195L6.66675 0.833299Z" fill="#292524"/>
        <path d="M19.9584 6.7082H19.1668C18.9828 6.797 18.5659 6.80398 18.3426 6.72216C18.2855 6.67234 18.2726 6.60356 18.2713 6.53446C18.2629 6.08577 18.2618 5.63698 18.2717 5.18829C18.2727 5.13962 18.2849 5.09261 18.311 5.05029C18.4427 4.93836 18.6011 4.9936 18.748 4.98557C18.8643 4.97921 18.9825 4.97213 19.0985 4.99912C19.1233 5.00975 19.1462 5.02393 19.1668 5.04154V5.83323C19.2503 5.9335 19.2233 6.05471 19.2302 6.16946C19.2379 6.29839 19.2094 6.43034 19.2621 6.56385C19.4093 6.63649 19.5705 6.58438 19.7239 6.60574C19.8093 6.61763 19.9257 6.57146 19.9584 6.7083V6.7082Z" fill="#292524"/>
        <path d="M13.3335 0.874958V0.833268C13.6113 0.73019 13.889 0.730086 14.1668 0.833268H14.9585C14.9765 0.85453 14.9907 0.878085 15.0012 0.903933C15.0219 1.15814 15.0393 1.41224 14.9883 1.64184C14.9226 1.71355 14.8601 1.72168 14.7976 1.72241C14.3607 1.72752 13.9236 1.72658 13.4866 1.72303C13.4308 1.72262 13.3756 1.71574 13.3286 1.6802C13.2352 1.4113 13.2264 1.14271 13.3336 0.874958H13.3335Z" fill="#292524"/>
        <path d="M4.16727 17.5412V17.4996C4.08362 17.3992 4.10956 17.278 4.10404 17.163C4.09852 17.0474 4.11768 16.9296 4.07716 16.814C3.94498 16.742 3.80477 16.7815 3.6705 16.7717C3.55571 16.7633 3.43447 16.7916 3.33405 16.7079V16.6662C3.25041 16.5658 3.27634 16.4446 3.27082 16.3296C3.2653 16.214 3.28447 16.0963 3.24395 15.9806C3.11176 15.9087 2.97156 15.9482 2.83729 15.9383C2.7225 15.9298 2.60125 15.9581 2.50083 15.8744V15.8327C2.41719 15.7323 2.44313 15.6111 2.43761 15.4961C2.43209 15.3806 2.45125 15.2628 2.41073 15.1471C2.27855 15.0752 2.13834 15.1147 2.00407 15.1048C1.88928 15.0963 1.76803 15.1246 1.66762 15.0409V14.9992C1.59731 14.9192 1.60397 14.8205 1.60345 14.7246C1.60158 14.3942 1.60345 14.0637 1.60231 13.7333C1.60199 13.6512 1.60991 13.5675 1.5671 13.4826C1.45293 13.4084 1.31867 13.4493 1.19148 13.4395C1.07002 13.4301 0.94138 13.4621 0.834298 13.3741V13.3324C0.766695 13.2577 0.776174 13.1648 0.77607 13.0754C0.775132 11.0422 0.775132 9.00888 0.776278 6.97567C0.776278 6.88676 0.765341 6.794 0.83409 6.70249C1.04794 6.56314 1.31898 6.70729 1.54752 6.5966C1.62126 6.53375 1.60866 6.44766 1.60887 6.36585C1.6097 6.01419 1.60835 5.66254 1.60981 5.31088C1.61022 5.22208 1.59981 5.13068 1.65116 5.04897C1.74887 4.96058 1.87053 4.98445 1.98574 4.97591C2.12105 4.9659 2.2624 5.00717 2.38927 4.92921C2.46938 4.84875 2.43584 4.7464 2.44261 4.65239C2.45302 4.50919 2.41834 4.36181 2.48927 4.2011C2.74135 4.08864 3.02156 4.16733 3.29124 4.14117C3.31811 4.14523 3.33978 4.15826 3.35634 4.17973C3.42144 4.31001 3.39072 4.4504 3.39874 4.58673C3.40478 4.68866 3.38186 4.79424 3.44072 4.8968C3.65998 4.99373 3.92008 4.86751 4.15841 5.00905C4.18581 5.28243 4.22195 5.55904 4.14102 5.83649C4.02425 5.9232 3.8881 5.88787 3.75894 5.89611C3.65602 5.90267 3.55071 5.88256 3.4077 5.94322C3.3903 6.41066 3.39374 6.89645 3.40842 7.37433C3.54759 7.46604 3.6829 7.42404 3.81092 7.43519C3.93258 7.44582 4.06268 7.40799 4.1707 7.49825C4.14789 7.61175 4.05133 7.59935 3.97498 7.60174C3.76217 7.60841 3.54884 7.61675 3.33624 7.59382C3.09593 7.55766 2.85583 7.54619 2.56625 7.59612C2.56594 9.19471 2.56583 10.7898 2.56635 12.3801C2.82666 12.4846 3.0703 12.3908 3.29613 12.4604C3.32051 12.4706 3.3404 12.4864 3.35634 12.5075C3.40749 12.6034 3.39613 12.7083 3.39665 12.8108C3.39842 13.1481 3.39634 13.4853 3.39801 13.8225C3.39842 13.904 3.38853 13.9885 3.44676 14.0721C3.66446 14.1477 3.90529 14.0621 4.13133 14.128C4.15466 14.1378 4.17393 14.1531 4.18925 14.1732C4.28081 14.4052 4.18279 14.6563 4.25872 14.9019C4.49018 14.9878 4.74028 14.8932 4.97298 14.9649C4.99569 14.9754 5.01361 14.9914 5.02694 15.0125C5.11048 15.2453 5.01632 15.4957 5.09288 15.7369C5.32944 15.82 5.57974 15.7248 5.81297 15.8013C5.83589 15.8132 5.85307 15.8307 5.86526 15.8533C5.94047 16.0798 5.85693 16.3204 5.92255 16.5454C6.00026 16.6183 6.09359 16.6009 6.18067 16.6016C6.53181 16.6041 6.88306 16.6016 7.2342 16.6031C7.31659 16.6034 7.39992 16.5998 7.47847 16.6339C7.50221 16.6463 7.52013 16.6644 7.53274 16.688C7.61065 16.914 7.52159 17.1571 7.61325 17.432C9.19594 17.4356 10.789 17.433 12.3944 17.4338C12.4617 17.1581 12.4384 16.9133 12.4066 16.668C12.3836 16.4557 12.3921 16.2429 12.3975 16.0304C12.3994 15.9519 12.3916 15.86 12.4939 15.8248C12.5836 15.9055 12.558 16.015 12.5638 16.1157C12.5722 16.2594 12.5489 16.4052 12.5994 16.5942C13.0805 16.6079 13.5696 16.6053 14.0537 16.5923C14.1644 16.3389 14.0317 16.0804 14.1616 15.86C14.4397 15.7779 14.7171 15.8153 14.9864 15.8382C15.1307 16.0774 15.0162 16.3284 15.0944 16.5464C15.1753 16.6167 15.2689 16.5981 15.3565 16.5988C15.682 16.6013 16.0075 16.5985 16.333 16.6006C16.4291 16.6012 16.5282 16.5906 16.6147 16.6494C16.6208 16.7883 16.5088 16.7579 16.4351 16.7662C16.2727 16.7847 16.1061 16.7525 15.9411 16.7948C15.8298 17.0226 15.977 17.284 15.8339 17.4988C15.7775 17.6018 15.6769 17.5954 15.5809 17.6022C15.4243 17.6133 15.2645 17.5795 15.1053 17.6329C14.9936 17.8545 15.1428 18.1165 15.0004 18.3321C14.9379 18.4421 14.8289 18.4354 14.7265 18.4366C14.3816 18.4408 14.0366 18.4373 13.6917 18.4387C13.6095 18.439 13.5256 18.4295 13.4369 18.4742C13.3277 18.6876 13.4786 18.9508 13.3338 19.1654C13.2582 19.2891 13.1323 19.2724 13.0169 19.2731C12.4692 19.2766 11.9214 19.2746 11.3737 19.2746C9.92468 19.2746 8.47553 19.2752 7.02649 19.2737C6.90389 19.2736 6.77441 19.2965 6.66723 19.2071V19.1654C6.58338 19.0652 6.60817 18.944 6.60254 18.8289C6.59692 18.7137 6.61775 18.5956 6.57348 18.4891C6.48723 18.4254 6.39525 18.44 6.30755 18.4394C5.96349 18.4374 5.61933 18.4398 5.27517 18.4379C5.17933 18.4374 5.08069 18.4439 5.00059 18.3738V18.3321C4.91694 18.2317 4.94288 18.1105 4.93736 17.9956C4.93173 17.88 4.95111 17.7622 4.91038 17.6465C4.77819 17.5747 4.63809 17.6141 4.50372 17.6043C4.38893 17.5959 4.26768 17.6241 4.16727 17.5404V17.5412Z" fill="#F0A415"/>
        <path d="M6.6671 19.2079H13.2691C13.2831 19.1944 13.2974 19.1795 13.3132 19.1667C13.3174 19.1633 13.3267 19.1662 13.3337 19.1662C13.3337 19.4369 13.3337 19.7076 13.3337 19.9783C13.3227 19.9854 13.3122 19.9978 13.301 19.9985C13.2595 20.0009 13.2177 19.9995 13.1761 19.9995H6.68971C6.6771 19.9877 6.66773 19.983 6.66762 19.9783C6.66689 19.7215 6.667 19.4647 6.667 19.2079H6.6671Z" fill="#292524"/>
        <path d="M0.792019 13.3331C0.53546 13.3331 0.279006 13.3331 0.0224476 13.3331C0.0150519 13.3226 0.00171872 13.3121 0.00130206 13.3013C-0.000781238 13.239 0.000260413 13.1765 0.000260413 13.1141V6.70824C0.261402 6.66447 0.522961 6.69938 0.771394 6.6874C0.830143 6.75827 0.811289 6.82352 0.811289 6.88376C0.812331 8.97242 0.812331 11.0612 0.811394 13.1499C0.811394 13.211 0.826914 13.2751 0.791915 13.3331H0.792019Z" fill="#292524"/>
        <path d="M0.791758 13.3331C0.791758 11.1354 0.791758 8.93758 0.791446 6.7399C0.791446 6.73396 0.787071 6.72802 0.784675 6.72197C0.779675 6.71739 0.774675 6.70874 0.769571 6.70874C0.513013 6.70811 0.256558 6.70811 0 6.70811V6.66642C0.269475 6.66642 0.53895 6.66642 0.808425 6.6659C0.813737 6.6659 0.818946 6.6585 0.824258 6.65454C0.827279 6.64891 0.832904 6.64318 0.832904 6.63755C0.83332 6.10548 0.83332 5.57342 0.83332 5.04135C1.09394 4.99716 1.35498 5.03218 1.6181 5.0204C1.66435 5.14099 1.64581 5.25251 1.64372 5.36048C1.63529 5.79573 1.67018 6.23159 1.62508 6.66632C1.62997 6.68226 1.62581 6.69696 1.61018 6.70113C1.59102 6.70623 1.57039 6.70769 1.55039 6.70769C1.33519 6.70811 1.12009 6.7078 0.904882 6.70821C0.88509 6.70821 0.865403 6.71124 0.848945 6.71259C0.841758 6.72166 0.833945 6.72687 0.833945 6.73208C0.833424 8.93237 0.833424 11.1327 0.833424 13.3329H0.791758V13.3331Z" fill="#292524"/>
        <path d="M19.1662 13.333V14.9997H18.3329C18.3239 14.9896 18.3148 14.9795 18.3055 14.9695C18.2495 14.8513 18.2692 14.7246 18.2682 14.6011C18.2657 14.2826 18.2658 13.9641 18.2682 13.6456C18.269 13.5494 18.2627 13.4502 18.3501 13.3441C18.6065 13.2924 18.8853 13.2889 19.1662 13.333Z" fill="#292524"/>
        <path d="M0.833984 13.3748C1.10346 13.3748 1.37293 13.3748 1.64241 13.3753C1.64772 13.3753 1.65293 13.3827 1.65824 13.3866C1.66126 13.3923 1.66689 13.398 1.66689 13.4036C1.6673 13.9357 1.6673 14.4678 1.6673 14.9998C1.39783 14.9998 1.12835 14.9998 0.85888 14.9993C0.853567 14.9993 0.848359 14.9919 0.843047 14.9879C0.840026 14.9823 0.834401 14.9766 0.834401 14.971C0.833984 14.4389 0.833984 13.9068 0.833984 13.3748Z" fill="#292524"/>
        <path d="M13.333 19.1662C13.333 18.9109 13.333 18.6556 13.3334 18.4003C13.3334 18.395 13.3404 18.3895 13.3442 18.3842C13.3497 18.381 13.3553 18.3749 13.3608 18.3749C13.8852 18.3745 14.4097 18.3745 14.9353 18.3745C14.9494 18.3611 14.9635 18.3462 14.9793 18.3334C14.9835 18.33 14.9928 18.3328 14.9996 18.3328V19.1509C14.9821 19.1602 14.9764 19.1658 14.9708 19.1658C14.4249 19.1662 13.8789 19.1662 13.333 19.1662Z" fill="#292524"/>
        <path d="M5 18.3746H6.64799C6.65872 18.3888 6.66612 18.394 6.66622 18.3993C6.66674 18.655 6.66674 18.9107 6.66674 19.1663H5.01875C5.00802 19.1522 5.00062 19.1469 5.00052 19.1416C5 18.886 5 18.6303 5 18.3746Z" fill="#292524"/>
        <path d="M15.833 17.4997C15.833 17.2433 15.833 16.987 15.833 16.7306C15.8434 16.7231 15.8538 16.7091 15.8643 16.709C16.0929 16.7078 16.3215 16.7082 16.5502 16.7078C16.5701 16.7078 16.5907 16.7063 16.6098 16.7011C16.6254 16.6969 16.6296 16.6822 16.6247 16.6663C16.6316 16.6627 16.6385 16.6593 16.6455 16.6558C16.6525 16.6593 16.6593 16.6628 16.6663 16.6663V17.4826C16.6505 17.4927 16.645 17.4991 16.6396 17.4991C16.3707 17.4997 16.1019 17.4996 15.833 17.4996V17.4997Z" fill="#292524"/>
        <path d="M15.0001 18.3329C15.0001 18.0784 15.0001 17.824 15.0005 17.5695C15.0005 17.5638 15.0064 17.5583 15.0095 17.5527C15.0148 17.5488 15.0201 17.5417 15.0253 17.5417C15.2729 17.5412 15.5205 17.5412 15.7692 17.5412C15.7833 17.5277 15.7974 17.5129 15.8131 17.5C15.8173 17.4967 15.8264 17.4995 15.8333 17.4995V18.3158C15.8175 18.3259 15.812 18.3324 15.8065 18.3324C15.5377 18.3329 15.2688 18.3328 15 18.3328L15.0001 18.3329Z" fill="#292524"/>
        <path d="M17.4998 15.833V16.6493C17.484 16.6594 17.4785 16.6658 17.4731 16.6658C17.2042 16.6664 16.9354 16.6663 16.6665 16.6663C16.5454 16.4068 16.6061 16.1444 16.6327 15.8724C16.9159 15.7673 17.1922 15.8206 17.4638 15.8153C17.4759 15.821 17.4878 15.8269 17.4998 15.833Z" fill="#292524"/>
        <path d="M18.333 14.9997V15.816C18.3171 15.8261 18.3116 15.8326 18.3062 15.8326C18.0373 15.8331 17.7685 15.833 17.4996 15.833C17.3751 15.5743 17.4404 15.3122 17.4647 15.0288C17.763 14.9486 18.0472 14.9619 18.333 14.9997Z" fill="#292524"/>
        <path d="M3.33399 16.7079H4.15013C4.16033 16.7237 4.1669 16.7291 4.1669 16.7345C4.16742 16.9896 4.16731 17.2445 4.16731 17.4995H3.35118C3.34097 17.4838 3.33441 17.4784 3.33441 17.473C3.33389 17.2179 3.33399 16.963 3.33399 16.7079Z" fill="#292524"/>
        <path d="M2.50001 15.8747H3.31614C3.32635 15.8904 3.33291 15.8959 3.33291 15.9013C3.33343 16.1563 3.33333 16.4112 3.33333 16.6663H2.5172C2.50699 16.6505 2.50043 16.6451 2.50043 16.6397C2.4999 16.3847 2.50001 16.1297 2.50001 15.8747Z" fill="#292524"/>
        <path d="M4.167 17.5413H4.98313C4.99334 17.557 4.9999 17.5624 4.9999 17.5678C5.00043 17.8229 5.00032 18.0778 5.00032 18.3328H4.18419C4.17398 18.3171 4.16742 18.3117 4.16742 18.3063C4.1669 18.0512 4.167 17.7963 4.167 17.5413Z" fill="#292524"/>
        <path d="M1.667 15.0413H2.48313C2.49334 15.0571 2.4999 15.0625 2.4999 15.0679C2.50043 15.3229 2.50032 15.5779 2.50032 15.8329H1.68419C1.67398 15.8172 1.66742 15.8118 1.66742 15.8063C1.6669 15.5513 1.667 15.2964 1.667 15.0413Z" fill="#292524"/>
        <path d="M18.3336 14.9997C18.3267 14.9997 18.3175 14.9969 18.3134 15.0002C18.2976 15.013 18.2836 15.0278 18.2694 15.0414H17.5161C17.5066 15.0585 17.5007 15.064 17.5007 15.0696C17.5002 15.3241 17.5002 15.5786 17.5002 15.8331C17.4934 15.8331 17.4842 15.8303 17.48 15.8336C17.4643 15.8464 17.4502 15.8612 17.4361 15.8748H16.6828C16.6733 15.8919 16.6673 15.8974 16.6673 15.903C16.6669 16.1575 16.6669 16.4119 16.6669 16.6665H16.6253C16.0911 16.6665 15.557 16.6665 15.0229 16.6665C15.0154 16.656 15.0013 16.6457 15.0012 16.6352C15 16.4132 15.0005 16.1913 15 15.9693C15 15.9425 15.0061 15.9148 14.9937 15.889C14.9885 15.8841 14.9835 15.8754 14.9785 15.8754C14.708 15.8748 14.4375 15.8748 14.167 15.8748C14.1389 15.878 14.1228 15.8657 14.1184 15.8378C14.1264 15.8288 14.1345 15.8199 14.1424 15.811C14.1627 15.798 14.1847 15.7891 14.2081 15.7837C14.4372 15.7494 14.6726 15.8033 14.914 15.7433C14.9565 15.4844 14.9489 15.2341 14.9058 14.9832C14.8853 14.7928 14.8928 14.6021 14.8974 14.4117C14.8992 14.3328 14.8926 14.2439 14.9854 14.2001C15.0824 14.2678 15.0535 14.3726 15.0615 14.4656C15.0739 14.6086 15.037 14.7558 15.1014 14.9123C15.3074 14.954 15.5164 14.9466 15.7416 14.915C15.7927 14.652 15.779 14.3998 15.7381 14.1469C15.7126 13.6794 15.7281 13.2117 15.7295 12.7443C15.7297 12.6654 15.7246 12.5742 15.8221 12.5337C15.9133 12.6043 15.8951 12.7075 15.8962 12.8014C15.9004 13.1332 15.8966 13.4652 15.8985 13.7971C15.899 13.8856 15.886 13.9776 15.9493 14.0751C16.1411 14.1239 16.3439 14.1061 16.592 14.08C16.6019 13.5457 16.6285 13.0192 16.5717 12.4913C16.5507 12.3394 16.5592 12.1867 16.5591 12.0343C16.5584 10.6755 16.559 9.31674 16.5582 7.95796C16.5582 7.8553 16.57 7.75013 16.5203 7.64851C16.3747 7.57941 16.2193 7.6235 16.0705 7.60599C15.9808 7.59546 15.8678 7.62913 15.8278 7.50052C16.1061 7.39514 16.3848 7.39942 16.6638 7.49729C16.7549 7.6037 16.7319 7.73346 16.732 7.85624C16.7336 9.25837 16.7325 10.6605 16.7339 12.0626C16.734 12.1717 16.7141 12.2852 16.7856 12.4032C16.9794 12.453 17.182 12.4426 17.4335 12.4027C17.4341 10.8062 17.4353 9.21564 17.4324 7.64841C17.2953 7.54127 17.1732 7.57587 17.0585 7.56639C16.9295 7.55575 16.793 7.59557 16.6756 7.50885C16.5928 7.42652 16.6036 7.31979 16.603 7.21775C16.6007 6.8808 16.6033 6.54373 16.6014 6.20677C16.6009 6.11839 16.6128 6.02678 16.5573 5.94788C16.4857 5.8694 16.3907 5.89702 16.3035 5.89202C16.1472 5.88295 15.9868 5.91588 15.8448 5.85783C15.7511 5.74548 15.7798 5.62364 15.7703 5.50899C15.759 5.37402 15.805 5.23175 15.72 5.10658C15.6225 5.0258 15.5067 5.06895 15.3994 5.05905C15.2643 5.04654 15.1222 5.08823 14.9884 5.00392C14.8723 4.77598 14.9943 4.51239 14.8978 4.27288C14.6641 4.16981 14.4001 4.29363 14.1673 4.18117C14.0733 4.04818 14.123 3.89809 14.1085 3.75718C14.0976 3.65056 14.144 3.53351 14.0514 3.44211C13.9705 3.38635 13.8781 3.39969 13.7894 3.39906C13.4502 3.39698 13.111 3.39948 12.7718 3.3976C12.6752 3.39708 12.5761 3.4025 12.4968 3.32986C12.4176 3.23481 12.4406 3.11974 12.4344 3.01051C12.4269 2.88044 12.4549 2.74672 12.3992 2.62394C12.2202 2.55047 7.82997 2.53921 7.59279 2.61488C7.55248 2.81238 7.55341 3.01489 7.59425 3.21083C7.70768 3.28838 7.82174 3.26639 7.93018 3.26649C9.33912 3.26805 10.7482 3.2668 12.1571 3.26857C12.2727 3.26868 12.3953 3.24523 12.4969 3.33007C12.6097 3.6071 12.5961 3.88569 12.5077 4.16512C12.3645 4.14146 12.4078 4.02118 12.3958 3.93624C12.3749 3.78751 12.4202 3.6318 12.3558 3.48755C12.2498 3.42272 12.1364 3.44273 12.0275 3.44263C10.6403 3.44128 9.25308 3.4419 7.86591 3.44148C7.7481 3.44148 7.62998 3.44701 7.51289 3.42939C6.9903 3.36769 6.46781 3.40365 5.93573 3.40573C5.8723 3.6392 5.89948 3.84733 5.91323 4.04015C6.01479 4.11644 6.10719 4.10133 6.19531 4.10185C6.52697 4.10394 6.85874 4.10081 7.1904 4.10383C7.2855 4.10467 7.38623 4.09195 7.46477 4.16845C7.43612 4.27737 7.34133 4.26976 7.26384 4.27017C6.79509 4.27299 6.32625 4.2881 5.85792 4.26319C5.60553 4.22119 5.35314 4.20806 5.08814 4.25673C5.05002 4.47883 5.05147 4.6878 5.08502 4.9C5.23043 4.96202 5.37053 4.92835 5.50616 4.93857C5.6072 4.94618 5.71646 4.91887 5.79969 5.00569C5.76615 5.10897 5.67449 5.10012 5.59678 5.10251C5.40616 5.10835 5.21522 5.11523 5.02502 5.09563C4.77315 5.04998 4.52107 5.04352 4.2568 5.08479C4.19982 5.31273 4.24326 5.53473 4.22305 5.75204C4.2219 5.77435 4.21784 5.79634 4.21201 5.81781C4.20555 5.83886 4.19461 5.85762 4.17993 5.87388C4.14118 5.88826 4.12013 5.87899 4.12576 5.83344C4.12576 5.56298 4.12576 5.29262 4.12576 5.02216C4.11514 5.01486 4.10461 5.0011 4.09399 5.0011C3.87212 4.99985 3.65025 5.00037 3.42827 4.99985C3.4015 4.99985 3.37379 5.00621 3.34817 4.99339C3.34338 4.98818 3.33473 4.98318 3.33473 4.97817C3.33411 4.70771 3.33411 4.43735 3.33411 4.16689C3.22234 3.90726 3.28077 3.64535 3.30056 3.38656C3.54785 3.2421 3.81222 3.3653 4.0467 3.27733C4.12763 3.18217 4.09399 3.06732 4.10274 2.96028C4.11441 2.81843 4.07128 2.66939 4.15763 2.53713C4.2618 2.46313 4.38211 2.48168 4.49867 2.47678C4.62815 2.47136 4.76085 2.49564 4.89054 2.44072C4.99918 2.20725 4.86804 1.94023 4.99616 1.70458C5.18793 1.6705 5.38095 1.69624 5.57251 1.68853C5.92344 1.67446 6.27562 1.71604 6.62583 1.66695C6.64176 1.67185 6.65645 1.66768 6.66062 1.65205C6.66572 1.63287 6.66718 1.61234 6.66718 1.59233C6.6676 1.37721 6.66728 1.16198 6.6677 0.946864C6.6677 0.927062 6.67072 0.907363 6.67207 0.890896C6.68114 0.883704 6.68635 0.875887 6.69155 0.875887C8.90579 0.875366 11.1199 0.875366 13.3342 0.875366V1.66706C13.6145 1.71427 13.8968 1.67967 14.1781 1.68749C14.4465 1.69499 14.7153 1.683 14.9964 1.69363C15.1398 1.92481 15.0075 2.19829 15.1013 2.43842C15.3388 2.53796 15.6018 2.40862 15.8319 2.52858C15.9173 2.61925 15.8904 2.7339 15.8979 2.84104C15.9078 2.98289 15.8748 3.12818 15.9314 3.27556C16.1689 3.37301 16.4372 3.2421 16.6716 3.36519C16.7597 3.48151 16.722 3.61773 16.731 3.74634C16.7391 3.86255 16.7138 3.98158 16.7631 4.10529C16.9974 4.2117 17.27 4.07236 17.5053 4.19878C17.5928 4.3153 17.5553 4.45142 17.5643 4.58003C17.5724 4.69625 17.5469 4.81527 17.5962 4.93721C17.7204 5.00944 17.8618 4.9666 17.9964 4.97796C18.1113 4.98755 18.234 4.95472 18.3341 5.04206V6.69006C18.3484 6.7007 18.3536 6.7081 18.3589 6.7082C18.6283 6.70872 18.8979 6.70872 19.1674 6.70872V13.3336C19.1605 13.3336 19.1513 13.3306 19.1471 13.3341C19.1314 13.3469 19.1172 13.3617 19.103 13.3752C18.8534 13.3752 18.605 13.3752 18.3566 13.3752C18.3491 13.3856 18.335 13.3959 18.335 13.4063C18.334 13.9376 18.3341 14.4689 18.3341 15.0002L18.3336 14.9997Z" fill="#F6C015"/>
        <path d="M6.62552 1.66669C6.63042 1.68253 6.62625 1.69816 6.61084 1.70119C6.58469 1.7064 6.5575 1.70806 6.53073 1.70806C6.08886 1.70848 5.6471 1.70838 5.20523 1.70838H5.02242C5.00638 1.71849 5.00044 1.72964 5.00044 1.74371C5.00044 1.9853 5.00044 2.227 5.00044 2.4688C4.98701 2.50111 4.95867 2.51998 4.93357 2.54165H4.16712C4.1566 2.53238 4.15306 2.5231 4.1566 2.51383C4.16014 2.50455 4.16358 2.49996 4.16712 2.49996V1.66669H6.62542H6.62552Z" fill="#292524"/>
        <path d="M18.3335 5.04153C18.0646 5.04153 17.7958 5.04153 17.5269 5.04111C17.5215 5.04111 17.516 5.03465 17.5105 5.03111C17.5071 5.02569 17.5005 5.02017 17.5005 5.01475C17.5 4.74595 17.5001 4.47705 17.5001 4.20825C17.4896 4.19898 17.4861 4.1897 17.4896 4.18043C17.4932 4.17115 17.4966 4.16656 17.5001 4.16656H18.2918C18.2918 4.17344 18.2889 4.18272 18.2923 4.18689C18.3051 4.20273 18.32 4.21691 18.3335 4.23098C18.3335 4.48122 18.3335 4.73011 18.3335 4.979C18.3444 4.98598 18.3553 4.9989 18.3664 4.9989C18.5945 5.00005 18.8227 4.99963 19.0509 5.00005C19.0708 5.00005 19.0914 5.00161 19.1104 5.00672C19.1259 5.01089 19.1301 5.02559 19.1252 5.04143H18.3336L18.3335 5.04153Z" fill="#292524"/>
        <path d="M15.833 2.54161C15.5634 2.54161 15.2939 2.54161 15.0244 2.54109C15.0191 2.54109 15.0139 2.53359 15.0085 2.52963C15.0056 2.52389 15 2.51826 15 2.51253C14.9996 2.2503 14.9996 1.98807 14.9996 1.73116C14.9882 1.71219 14.9769 1.70792 14.9623 1.70792C14.4508 1.70823 13.9394 1.70823 13.4279 1.70792C13.4012 1.70792 13.3739 1.70625 13.3477 1.70104C13.3322 1.69791 13.3282 1.68228 13.333 1.66644C13.8649 1.66644 14.397 1.66644 14.929 1.66602C14.9347 1.66602 14.9403 1.66039 14.9459 1.65747C14.9499 1.65216 14.9573 1.64695 14.9573 1.64163C14.9578 1.38597 14.9578 1.1303 14.9578 0.874744C14.9737 0.869846 14.9883 0.874015 14.9925 0.889544C14.9976 0.908618 14.9992 0.92915 14.9992 0.948953C14.9996 1.15636 14.9992 1.36387 14.9997 1.57128C14.9997 1.59806 14.9941 1.62558 15.0054 1.65153C15.0105 1.65664 15.0153 1.66571 15.0202 1.66571C15.2692 1.66644 15.518 1.66633 15.7682 1.66633C15.7823 1.67978 15.7966 1.69468 15.8123 1.7075C15.8165 1.71084 15.8257 1.70802 15.8326 1.70802V2.49971C15.8431 2.50899 15.8467 2.51826 15.8431 2.52754C15.8396 2.53682 15.8361 2.5414 15.8326 2.5414L15.833 2.54161Z" fill="#292524"/>
        <path d="M1.62574 6.66655C1.62574 6.13459 1.62574 5.60252 1.62533 5.07056C1.62533 5.06493 1.6197 5.0592 1.61678 5.05357C1.61147 5.04961 1.60626 5.04221 1.60095 5.04221C1.34533 5.04169 1.08971 5.04169 0.833984 5.04169V5C1.10273 5 1.37158 5 1.64033 4.99958C1.64585 4.99958 1.65126 4.99312 1.65678 4.98968C1.66033 4.98426 1.66689 4.97884 1.66689 4.97331C1.66741 4.71828 1.6673 4.46334 1.6673 4.2083C1.92761 4.16411 2.18834 4.1984 2.47979 4.18756C2.46958 4.46866 2.50208 4.73381 2.45896 4.99989C2.46385 5.01573 2.45969 5.03033 2.44417 5.03449C2.42521 5.0396 2.40469 5.04116 2.3849 5.04127C2.17792 5.04169 1.97084 5.04158 1.76387 5.04158H1.6921C1.66887 5.05451 1.66678 5.06607 1.66678 5.0814C1.6673 5.57823 1.6673 6.07497 1.66699 6.57181C1.66699 6.59849 1.66533 6.62569 1.66012 6.65185C1.65699 6.66738 1.64137 6.67145 1.62564 6.66655H1.62574Z" fill="#292524"/>
        <path d="M15.833 2.54163V2.49994H16.6247C16.6247 2.50682 16.6217 2.51609 16.6252 2.52026C16.638 2.5361 16.6529 2.55028 16.6663 2.56435V3.33322C16.6768 3.34249 16.6804 3.35177 16.6768 3.36104C16.6733 3.37032 16.6699 3.37491 16.6663 3.37491H15.8501C15.84 3.35906 15.8335 3.35354 15.8335 3.34812C15.833 3.07932 15.8331 2.81042 15.8331 2.54163H15.833Z" fill="#292524"/>
        <path d="M16.667 3.37488V3.33319H17.4358C17.4499 3.34664 17.4642 3.36154 17.4799 3.37436C17.4841 3.3777 17.4933 3.37488 17.5002 3.37488V4.20816H16.684C16.6739 4.19232 16.6674 4.18679 16.6674 4.18137C16.6669 3.91258 16.667 3.64368 16.667 3.37488Z" fill="#292524"/>
        <path d="M4.16664 2.49994V3.31446C4.14831 3.33071 4.12768 3.34895 4.09883 3.37459C4.0481 3.37574 3.98643 3.3748 3.92477 3.37491C3.8555 3.37511 3.78633 3.37491 3.71706 3.37491H3.35301C3.34207 3.38783 3.33384 3.39294 3.33384 3.39804C3.33322 3.65423 3.33332 3.91041 3.33332 4.1666H3.29165C3.20259 4.06769 3.23697 3.94522 3.22853 3.8312C3.21999 3.71572 3.24718 3.59711 3.19541 3.47673C2.97687 3.37074 2.71541 3.51749 2.5 3.37491V3.33322H3.31624C3.32634 3.31737 3.3328 3.31185 3.3328 3.30643C3.33332 3.03763 3.33322 2.76873 3.33322 2.49994H4.16654H4.16664Z" fill="#292524"/>
        <path d="M2.50042 3.37488C2.75541 3.37488 3.0103 3.37488 3.2653 3.37529C3.27072 3.37529 3.27624 3.38176 3.28165 3.3853C3.28509 3.39072 3.29165 3.39624 3.29165 3.40166C3.29217 3.6566 3.29207 3.91153 3.29207 4.16657C3.29686 4.18231 3.2928 4.1969 3.27738 4.20117C3.25843 4.20638 3.23811 4.20795 3.21832 4.20805C2.98489 4.20847 2.75145 4.20836 2.52323 4.20836C2.50448 4.21962 2.5001 4.23098 2.5001 4.24536C2.50042 4.48612 2.50031 4.72678 2.50031 4.96754C2.50031 4.98598 2.48781 4.99547 2.45865 4.99995C2.45865 4.74502 2.45865 4.49008 2.45823 4.23504C2.45823 4.22963 2.45177 4.2241 2.44823 4.21868C2.44281 4.21524 2.43729 4.20868 2.43188 4.20868C2.17688 4.20815 1.92199 4.20826 1.66699 4.20826V4.16657C1.93574 4.16657 2.20459 4.16657 2.47333 4.16615C2.47885 4.16615 2.48427 4.15969 2.48979 4.15625C2.49333 4.15083 2.4999 4.14541 2.4999 4.13989C2.50042 3.88485 2.50031 3.62992 2.50031 3.37488H2.50042Z" fill="#292524"/>
        <path d="M12.5001 15.833C12.4844 15.8282 12.4699 15.8322 12.4656 15.8475C12.4604 15.8662 12.4587 15.8865 12.4586 15.9061C12.4582 16.1595 12.4583 16.4129 12.4583 16.6663C12.3805 16.7442 12.2792 16.7325 12.1839 16.7326C10.7146 16.7346 9.24522 16.7344 7.77597 16.7331C7.67941 16.7331 7.58014 16.7376 7.50004 16.6663C7.42004 16.5721 7.44108 16.4575 7.43546 16.3483C7.42879 16.2179 7.45441 16.0849 7.40494 15.9579C7.33077 15.8859 7.23692 15.8994 7.1489 15.8986C6.80255 15.8958 6.4562 15.8987 6.10985 15.8968C6.0135 15.8962 5.91413 15.9035 5.8334 15.833C5.7534 15.7383 5.77621 15.6235 5.77059 15.5142C5.76361 15.3777 5.79121 15.2375 5.73277 15.1045C5.49465 14.9967 5.22622 15.1404 5.00008 14.9997C4.92008 14.9051 4.94289 14.7902 4.93727 14.6809C4.93029 14.5444 4.95789 14.4043 4.89945 14.2713C4.66133 14.1634 4.3929 14.3071 4.16676 14.1664C4.09613 14.0858 4.10343 13.9863 4.1029 13.8899C4.10103 13.5505 4.10343 13.2111 4.10145 12.8716C4.10093 12.7828 4.11165 12.6909 4.05436 12.6046C3.92843 12.5371 3.78728 12.5733 3.65156 12.5646C3.54239 12.5575 3.42771 12.5797 3.33354 12.4998C3.26219 12.4197 3.26677 12.3204 3.26667 12.2239C3.26531 10.7545 3.26511 9.28526 3.26708 7.8159C3.26719 7.72064 3.25552 7.61944 3.33354 7.54158C3.60062 7.54158 3.8676 7.54158 4.13468 7.54158C4.1528 7.54158 4.16228 7.52897 4.16686 7.5C4.11155 7.43934 4.1027 7.36399 4.10197 7.28717C4.09832 6.88684 4.0979 6.48652 4.10238 6.08619C4.10322 6.01084 4.10415 5.93277 4.16686 5.87503C4.44207 5.76434 4.71894 5.82219 4.98883 5.84074C5.12883 6.07994 5.01414 6.33164 5.09591 6.54884C5.27174 6.61586 6.3086 6.62409 6.52505 6.56052C6.61703 6.32935 6.49537 6.06493 6.61787 5.82782C6.84745 5.69952 7.11286 5.82594 7.35358 5.73162C7.4516 5.49847 7.33067 5.23332 7.46004 4.97484C7.74826 4.92419 8.04388 4.89365 8.3418 4.98943C8.42002 5.27574 8.46034 5.561 8.31628 5.84043C8.2118 5.77883 8.23867 5.67315 8.23065 5.58007C8.21826 5.43687 8.2544 5.2896 8.19117 5.13107C8.00149 5.08396 7.80576 5.09939 7.599 5.12117C7.53285 5.3265 7.5692 5.52265 7.5716 5.70921C7.70118 5.80176 7.82983 5.76059 7.95076 5.77112C8.06555 5.78102 8.18847 5.74579 8.28909 5.83324C8.26284 5.96122 8.15534 5.92662 8.07461 5.93559C7.91847 5.95289 7.75754 5.91432 7.59764 5.96935C7.53816 6.11954 7.57702 6.27359 7.5617 6.42252C7.55243 6.51278 7.58723 6.62336 7.46598 6.67204C7.38212 6.58855 7.40254 6.48016 7.3965 6.37802C7.38879 6.24795 7.41692 6.11496 7.36098 5.96925C7.17317 5.91078 6.97661 5.93819 6.76255 5.95174C6.70682 6.16154 6.72141 6.36207 6.75276 6.55958C6.89932 6.63129 7.04025 6.59429 7.17629 6.60471C7.27765 6.61252 7.38765 6.58772 7.46556 6.68298C7.40556 6.78877 7.29983 6.76438 7.20661 6.77324C7.064 6.78679 6.91599 6.74708 6.74495 6.82744C6.72182 7.28217 6.73213 7.74795 6.74016 8.20894C6.99984 8.33192 7.26723 8.19956 7.49035 8.31921C7.57191 8.41113 7.56483 8.51796 7.56504 8.62073C7.56702 9.81994 7.56764 11.0191 7.56358 12.2184C7.56327 12.3194 7.60035 12.446 7.45994 12.5007C7.3739 12.4005 7.39358 12.2782 7.39337 12.1621C7.39181 11.0375 7.39285 9.91291 7.39192 8.78832C7.39192 8.68587 7.40535 8.58029 7.34608 8.47325C7.15869 8.42301 6.96953 8.43052 6.73318 8.47398C6.73307 9.78096 6.73109 11.0859 6.73474 12.3786C6.98901 12.4928 7.23379 12.368 7.44358 12.4866C7.44639 12.6259 7.3341 12.5919 7.26015 12.6013C7.10307 12.6211 6.9414 12.5835 6.73932 12.6469C6.72463 13.107 6.72568 13.5792 6.7412 14.0361C6.82922 14.1171 6.91599 14.1012 6.99713 14.1016C7.3441 14.1037 7.69108 14.1011 8.03805 14.1034C8.14086 14.1041 8.24774 14.0935 8.34628 14.1742C8.45773 14.3921 8.34773 14.6477 8.43419 14.8971C8.62096 14.967 8.81658 14.9316 9.00866 14.9218C9.09126 14.767 9.04699 14.6183 9.06179 14.4766C9.0721 14.3779 9.03699 14.2629 9.15355 14.199C9.2447 14.2789 9.22105 14.3884 9.22866 14.49C9.23876 14.6262 9.2021 14.7671 9.2723 14.9129C9.46428 14.9534 9.6599 14.9484 9.86573 14.9149C9.91677 14.7065 9.8975 14.5109 9.88115 14.3214C9.73136 14.2417 9.59011 14.2811 9.45449 14.2706C9.35282 14.2628 9.24366 14.2865 9.16199 14.1974C9.16814 14.1685 9.18376 14.1417 9.21147 14.1361C9.47772 14.0819 9.74261 14.0766 10.0031 14.1493C10.1222 14.3926 10.0201 14.6468 10.0978 14.8991C10.3006 14.9588 10.5091 14.9415 10.7207 14.9114C10.8292 14.6673 10.7029 14.401 10.8479 14.1212C11.3801 14.079 11.9379 14.108 12.4945 14.1056C12.6887 14.0982 12.8831 14.0986 13.0771 14.1043C13.3204 14.1115 13.3808 14.1759 13.3965 14.416C13.4068 14.5738 13.3728 14.7351 13.4306 14.8951C13.6561 15.0008 13.9169 14.8624 14.1381 14.9939C14.2024 15.2747 14.2254 15.5551 14.1249 15.8334C14.0672 15.8961 13.9891 15.8971 13.9138 15.8979C13.5135 15.9024 13.1131 15.902 12.7128 15.8983C12.636 15.8976 12.5606 15.8887 12.5 15.8335L12.5001 15.833Z" fill="#CE7D02"/>
        <path d="M7.5 16.6663H12.4583C12.4583 16.6732 12.4553 16.6825 12.4588 16.6867C12.4716 16.7025 12.4865 16.7168 12.499 16.7298V17.4791C12.4897 17.4939 12.4785 17.4997 12.4643 17.4996C12.4296 17.4993 12.3949 17.4996 12.3602 17.4996C10.7856 17.4996 9.21091 17.4996 7.63625 17.4993C7.59552 17.4993 7.55427 17.5056 7.51448 17.4932C7.50948 17.4879 7.50073 17.483 7.50073 17.478C7.5001 17.2074 7.5001 16.9369 7.5001 16.6664L7.5 16.6663Z" fill="#FFDF80"/>
        <path d="M3.33393 7.54151V12.4997C3.06342 12.4997 2.7929 12.4997 2.52228 12.4997C2.51509 12.489 2.50249 12.4787 2.50155 12.4675C2.49884 12.433 2.50051 12.3982 2.50051 12.3635V7.51795C2.53328 7.50586 2.78953 7.49982 3.26925 7.49982C3.28331 7.51326 3.29758 7.52817 3.31341 7.54099C3.31758 7.54443 3.32685 7.54151 3.33383 7.54151H3.33393Z" fill="#FFDF80"/>
        <path d="M3.33322 12.4997H4.10206C4.12018 12.517 4.13977 12.5357 4.15893 12.554C4.16154 12.5675 4.16612 12.5803 4.16612 12.5931C4.16643 13.1175 4.16643 13.6419 4.16643 14.1664C3.89696 14.1664 3.62738 14.1664 3.3579 14.1658C3.35259 14.1658 3.34738 14.1584 3.34207 14.1545C3.33905 14.1488 3.33342 14.1431 3.33342 14.1375C3.33301 13.5916 3.33301 13.0456 3.33301 12.4997H3.33322Z" fill="#FFDF80"/>
        <path d="M5.83311 15.833H7.42725C7.45902 15.847 7.4785 15.8746 7.49975 15.9003V16.6664H5.85165C5.84092 16.6521 5.83353 16.6469 5.83353 16.6416C5.83301 16.3721 5.83301 16.1025 5.83301 15.8331L5.83311 15.833Z" fill="#FFDF80"/>
        <path d="M12.5001 15.833H14.1251C14.1305 15.8663 14.1335 15.8692 14.1667 15.8747C14.1667 16.1314 14.1667 16.388 14.1667 16.6447C14.156 16.6519 14.1453 16.6655 14.1346 16.6655C13.6004 16.6665 13.0663 16.6664 12.5322 16.6661C12.5261 16.6661 12.5202 16.6619 12.5142 16.6596C12.5095 16.6546 12.5007 16.6496 12.5006 16.6446C12.5 16.374 12.5 16.1036 12.5 15.833H12.5001Z" fill="#FFDF80"/>
        <path d="M4.16731 5.87482V7.49979C3.89679 7.49979 3.62628 7.49979 3.35566 7.49979C3.34837 7.48905 3.33482 7.47842 3.33482 7.46769C3.33378 6.93353 3.33389 6.39949 3.3342 5.86534C3.3342 5.85929 3.33837 5.85335 3.34066 5.8473C3.34566 5.84261 3.35066 5.83376 3.35566 5.83376C3.61232 5.83313 3.86898 5.83313 4.12565 5.83313C4.13106 5.86638 4.13408 5.8693 4.16731 5.87482Z" fill="#FFDF80"/>
        <path d="M4.167 14.1663H4.93501C4.9522 14.1823 4.97178 14.2006 4.99063 14.2182C4.99407 14.2319 4.9998 14.2444 4.9998 14.2568C5.00032 14.5044 5.00022 14.752 5.00022 14.9996H4.18398C4.17388 14.9838 4.16742 14.9782 4.16742 14.9728C4.1669 14.704 4.167 14.4351 4.167 14.1663Z" fill="#FFDF80"/>
        <path d="M5.00001 14.9997H5.76802C5.7852 15.0156 5.80479 15.034 5.82364 15.0516C5.82708 15.0653 5.83281 15.0778 5.83281 15.0902C5.83333 15.3378 5.83322 15.5853 5.83322 15.833H5.01699C5.00688 15.8171 5.00043 15.8116 5.00043 15.8062C4.9999 15.5374 5.00001 15.2685 5.00001 14.9997Z" fill="#FFDF80"/>
        <path d="M14.1251 14.9997C13.8689 14.9997 13.6127 14.9997 13.3565 14.9992C13.3514 14.9992 13.3463 14.991 13.3408 14.9862C13.326 14.9399 13.3351 14.8918 13.3338 14.8444C13.3323 14.7891 13.3335 14.7336 13.3335 14.6783V14.2346C13.3075 14.2053 13.2892 14.1847 13.2729 14.1663H12.5002C12.3811 13.8915 12.4373 13.6152 12.4673 13.3444C12.7198 13.1999 12.9857 13.3244 13.267 13.2168C13.2692 12.4735 13.2727 11.7161 13.2638 10.9639C13.0054 10.8299 12.7371 10.9636 12.4991 10.8436C12.3654 10.6189 12.4936 10.3512 12.3954 10.1109C12.1659 9.99763 11.8975 10.1334 11.6491 9.99961C11.57 9.72498 11.5901 9.44368 11.6375 9.17342C11.8977 9.03459 12.1649 9.16477 12.4245 9.04658C12.4398 8.29522 12.4479 7.53751 12.42 6.78709C12.1613 6.67307 11.9032 6.79126 11.6641 6.67495C11.5315 6.45493 11.6602 6.18665 11.5629 5.94725C11.3334 5.83218 11.0649 5.96309 10.8337 5.84334C10.6974 5.61321 10.8319 5.34431 10.7215 5.10001C10.5209 5.04341 10.3175 5.05748 10.1127 5.08667C10.0315 5.24759 10.0804 5.41018 10.0638 5.56599C10.0533 5.66417 10.09 5.78007 9.96992 5.84125C9.87878 5.7709 9.90388 5.66793 9.89659 5.57465C9.88451 5.41873 9.92055 5.25905 9.86034 5.09156C9.66639 5.04299 9.47222 5.0554 9.28097 5.08114C9.20014 5.21476 9.24046 5.34858 9.22962 5.47594C9.21941 5.59695 9.25608 5.72556 9.1715 5.83479C9.04306 5.81186 9.07233 5.70461 9.06494 5.62353C9.04952 5.45343 9.07994 5.28021 9.03858 5.10751C8.81088 4.99495 8.54869 5.14295 8.33359 4.99985C8.04933 4.99985 7.76506 4.99985 7.48079 4.99985C7.4734 5.01037 7.45955 5.0209 7.45955 5.03143C7.4583 5.26718 7.45882 5.50283 7.4583 5.73859C7.4583 5.76538 7.46444 5.7931 7.45215 5.81884C7.44694 5.82374 7.44205 5.8326 7.43705 5.8326C7.17361 5.83323 6.91018 5.83323 6.64664 5.83323C6.63956 5.84407 6.62622 5.8548 6.62622 5.86575C6.62508 6.1015 6.6256 6.33715 6.62497 6.57291C6.62497 6.59959 6.63164 6.62742 6.6182 6.65285C6.61289 6.65754 6.60789 6.66598 6.60279 6.66598C6.07592 6.66661 5.54895 6.6665 5.02208 6.6665C5.01479 6.65587 5.00135 6.64514 5.00125 6.6344C5 6.41251 5.00063 6.19072 5 5.96882C5 5.94204 5.00646 5.91431 4.99344 5.88878C4.98823 5.88398 4.98313 5.87544 4.97813 5.87544C4.70771 5.87481 4.4374 5.87492 4.16699 5.87492V5.83323C4.26751 5.74953 4.38886 5.77663 4.50386 5.76965C4.63292 5.76173 4.76511 5.79112 4.89938 5.73661C4.96229 5.61696 4.92719 5.48387 4.93698 5.35629C4.94521 5.24884 4.91563 5.13367 5.00042 5.04154C5.25364 5.04154 5.50676 5.04154 5.75999 5.04154C5.77801 5.04154 5.78749 5.02892 5.79207 4.99995C5.77468 4.73439 5.71666 4.46674 5.83374 4.20826C6.34383 4.20826 6.85393 4.20826 7.36413 4.20795C7.3908 4.20795 7.41798 4.20628 7.44402 4.20107C7.45944 4.19794 7.4635 4.18241 7.45871 4.16657C7.44132 3.901 7.3833 3.63336 7.50038 3.37488C9.14514 3.37488 10.7899 3.37488 12.4348 3.3754C12.44 3.3754 12.4452 3.38322 12.4542 3.39051C12.4555 3.40698 12.4584 3.42678 12.4584 3.44648C12.4587 3.67546 12.4586 3.90455 12.4586 4.13353C12.4586 4.1526 12.471 4.16219 12.5003 4.16657C12.5488 4.12279 12.6079 4.10539 12.671 4.10466C13.1176 4.09924 13.5641 4.09257 14.0106 4.10841C14.0452 4.10966 14.0779 4.12134 14.1088 4.13666C14.2206 4.21295 14.2255 4.32947 14.2304 4.44923C14.2365 4.59879 14.2058 4.75179 14.2624 4.90062C14.412 4.9642 14.5654 4.92845 14.7144 4.93648C14.8254 4.94242 14.9373 4.93835 15.0168 5.03664C15.092 5.17244 15.0537 5.32065 15.0629 5.46354C15.0686 5.55213 15.0521 5.64343 15.0995 5.73265C15.2421 5.79894 15.3962 5.76235 15.5455 5.76944C15.6648 5.77517 15.7824 5.77622 15.8615 5.88701C15.9191 6.01187 15.8981 6.14465 15.8992 6.27441C15.9019 6.59136 15.9014 6.90831 15.8993 7.22525C15.8987 7.32124 15.9043 7.42005 15.8335 7.49968C15.8286 7.51562 15.8327 7.53032 15.8484 7.53449C15.8675 7.53959 15.8882 7.54105 15.9081 7.54105C16.1232 7.54147 16.3384 7.54116 16.5535 7.54157C16.5733 7.54157 16.593 7.54449 16.6095 7.54585C16.6167 7.55481 16.6246 7.56002 16.6246 7.56523C16.6251 9.21 16.6251 10.8548 16.6251 12.4995C16.3667 12.6166 16.099 12.5585 15.8335 12.5412C15.8176 12.5364 15.8021 12.5405 15.799 12.5559C15.7938 12.582 15.7921 12.6092 15.7921 12.6359C15.7918 13.1459 15.7918 13.6561 15.7918 14.1662C15.5334 14.2832 15.2657 14.2252 15.0002 14.2079C14.9845 14.2031 14.9699 14.2072 14.9658 14.2224C14.9606 14.2411 14.9588 14.2615 14.9588 14.2811C14.9584 14.5206 14.9585 14.7601 14.9585 14.9995C14.7086 15.1183 14.4488 15.0569 14.1915 15.0417C14.1675 15.0307 14.1454 15.0166 14.1252 14.9995L14.1251 14.9997Z" fill="#DF9509"/>
        <path d="M12.4998 3.33322C10.8428 3.33322 9.18588 3.33322 7.52903 3.3329C7.52331 3.3329 7.51758 3.32738 7.51195 3.32446C7.49664 3.22055 7.49518 3.10507 7.50174 2.51901C7.51008 2.50578 7.52133 2.49984 7.53549 2.49994C7.57018 2.50015 7.60487 2.49994 7.63945 2.49994H12.4343C12.4608 2.52475 12.4809 2.54361 12.4999 2.56122V3.33322H12.4998Z" fill="#FFDF80"/>
        <path d="M16.667 7.49982H17.439C17.4567 7.51868 17.4755 7.5389 17.498 7.56298V12.4811C17.491 12.4881 17.4861 12.4973 17.4812 12.4973C17.218 12.4985 16.9548 12.4992 16.6917 12.4992C16.6864 12.4992 16.6812 12.4917 16.6758 12.4877C16.6729 12.482 16.6674 12.4762 16.6674 12.4706C16.667 10.8136 16.6671 9.15678 16.6671 7.49982H16.667Z" fill="#FFDF80"/>
        <path d="M15.833 12.5413C15.8282 12.5257 15.8322 12.5111 15.8474 12.5069C15.8662 12.5017 15.8865 12.5 15.9061 12.5C16.1456 12.4995 16.385 12.4996 16.6245 12.4996C16.6245 12.5066 16.6216 12.5158 16.625 12.5201C16.6378 12.5359 16.6527 12.5501 16.666 12.564V14.1459C16.6547 14.1528 16.6437 14.1655 16.6325 14.1655C16.3761 14.1666 16.1195 14.1664 15.8631 14.166C15.8572 14.166 15.8514 14.1609 15.8457 14.1583C15.8414 14.1531 15.8335 14.148 15.8335 14.1427C15.833 13.609 15.833 13.0752 15.833 12.5414V12.5413Z" fill="#FFDF80"/>
        <path d="M7.50066 3.37489C7.50066 3.62805 7.50066 3.88121 7.50066 4.13438C7.50066 4.15241 7.48805 4.16189 7.45899 4.16648H5.84798C5.83933 4.14793 5.83433 4.14209 5.83433 4.13625C5.83391 3.89362 5.83391 3.65098 5.83412 3.40835C5.83412 3.38834 5.8362 3.36822 5.83714 3.35082C5.84454 3.34342 5.84943 3.33424 5.85433 3.33424C6.38109 3.33362 6.90785 3.33362 7.4366 3.33362C7.45014 3.34654 7.46441 3.36145 7.48024 3.37427C7.48441 3.37771 7.49368 3.37479 7.50066 3.37479V3.37489Z" fill="#FFDF80"/>
        <path d="M14.125 4.16659H12.5V3.33331C13.0101 3.33331 13.5202 3.33331 14.0304 3.33363C14.0571 3.33363 14.0842 3.33529 14.1103 3.3405C14.1257 3.34363 14.1298 3.35916 14.125 3.375C14.1584 3.6389 14.1584 3.9028 14.125 4.16669V4.16659Z" fill="#FFDF80"/>
        <path d="M15.833 7.49977V5.87481C16.0969 5.84145 16.3608 5.84145 16.6247 5.87481C16.6405 5.87001 16.656 5.87408 16.6591 5.8895C16.6643 5.91556 16.666 5.94276 16.666 5.96944C16.6663 6.47952 16.6663 6.9897 16.6663 7.49977H15.833Z" fill="#FFDF80"/>
        <path d="M14.1251 4.16662V3.37493C14.141 3.37003 14.1557 3.3742 14.1599 3.38983C14.165 3.40901 14.1664 3.42954 14.1664 3.44955C14.1668 3.66467 14.1665 3.87979 14.1669 4.09491C14.1669 4.11471 14.1699 4.13441 14.1712 4.15088C14.1802 4.15807 14.1854 4.16599 14.1906 4.16599C14.4402 4.16662 14.6898 4.16651 14.9376 4.16651C14.959 4.18798 14.9786 4.20758 15.0001 4.22905C15.0001 4.47679 15.0001 4.72641 15.0006 4.97603C15.0006 4.98124 15.0084 4.98645 15.0157 4.99541C15.0321 4.99677 15.0519 4.99969 15.0717 4.99969C15.3008 5 15.5297 4.99989 15.7588 4.99989C15.7779 4.99989 15.7874 5.0123 15.7918 5.04148C15.528 5.14643 15.264 5.14383 15.0002 5.04148C14.9933 5.04148 14.9834 5.0444 14.9801 5.04096C14.9659 5.02637 14.9537 5.0098 14.9456 4.99979C14.6879 4.99979 14.4407 4.99979 14.1935 4.99937C14.1881 4.99937 14.1827 4.99291 14.1773 4.98937C14.1738 4.98395 14.1673 4.97853 14.1673 4.97311C14.1667 4.72599 14.1668 4.47877 14.1668 4.22102C14.1568 4.21289 14.1403 4.2007 14.1257 4.18652C14.1223 4.18319 14.1252 4.17329 14.1252 4.16641L14.1251 4.16662Z" fill="#FFDF80"/>
        <path d="M15 5.04157H15.7917C15.8074 5.03678 15.822 5.04084 15.8262 5.05627C15.8314 5.07524 15.833 5.09556 15.8331 5.11536C15.8335 5.34883 15.8334 5.58219 15.8334 5.81044C15.8447 5.8292 15.856 5.83358 15.8705 5.83358C16.1112 5.83326 16.352 5.83337 16.5927 5.83337C16.6111 5.83337 16.6206 5.84587 16.6251 5.87495H15.8334C15.8265 5.87495 15.8174 5.87777 15.8132 5.87443C15.7975 5.86161 15.7834 5.84681 15.7693 5.83326C15.5206 5.83326 15.273 5.83326 15.0254 5.83274C15.0201 5.83274 15.0148 5.82555 15.0096 5.8218C15.0065 5.81617 15.0006 5.81065 15.0006 5.80502C15.0002 5.5505 15.0002 5.29609 15.0002 5.04157H15Z" fill="#FFDF80"/>
        <path d="M5.00031 5.04157C5.00031 5.29661 5.00031 5.55154 4.9999 5.80658C4.9999 5.812 4.99333 5.81742 4.98979 5.82294C4.98427 5.82638 4.97885 5.83284 4.97333 5.83284C4.70459 5.83336 4.43574 5.83326 4.16699 5.83326V5.01833C4.18147 5.00769 4.18678 5.0004 4.19199 5.0004C4.4397 4.99988 4.6873 4.99988 4.93604 4.99988C4.95021 5.01343 4.96427 5.02823 4.98 5.04105C4.98417 5.04438 4.99333 5.04157 5.00021 5.04157H5.00031Z" fill="#FFDF80"/>
        <path d="M14.9999 14.208C14.9952 14.1924 14.9992 14.1778 15.0144 14.1736C15.0332 14.1684 15.0535 14.1666 15.0731 14.1666C15.3125 14.1662 15.552 14.1663 15.7915 14.1663C15.7915 14.1732 15.7886 14.1825 15.792 14.1867C15.8048 14.2025 15.8197 14.2167 15.8327 14.2303V14.9794C15.8213 14.9863 15.8102 14.9987 15.7991 14.9988C15.543 14.9999 15.2867 14.9997 15.0306 14.9993C15.0247 14.9993 15.0189 14.9945 15.013 14.9919C15.0086 14.9868 15.0005 14.9817 15.0004 14.9766C14.9997 14.7204 14.9998 14.4642 14.9998 14.208H14.9999Z" fill="#FFDF80"/>
        <path d="M5.83365 4.20828C5.83365 4.46144 5.83365 4.7146 5.83365 4.96777C5.83365 4.9858 5.82104 4.99528 5.79198 4.99987C5.53573 4.99987 5.27959 4.99987 5.02345 4.99935C5.01835 4.99935 5.01324 4.99111 5.00814 4.98684C4.99835 4.81622 4.9972 4.42434 5.00574 4.18212C5.01064 4.17722 5.01553 4.16805 5.02043 4.16805C5.26959 4.16732 5.51875 4.16742 5.7701 4.16742C5.78333 4.18004 5.7975 4.19494 5.81333 4.20776C5.8175 4.21109 5.82677 4.20828 5.83365 4.20828Z" fill="#FFDF80"/>
        <path d="M14.167 14.9997H14.9587C14.9587 15.0066 14.9559 15.0157 14.9592 15.0199C14.972 15.0357 14.9868 15.0497 15.0004 15.0639C15.0004 15.3127 15.0004 15.5603 14.9998 15.808C14.9998 15.8133 14.9925 15.8185 14.9887 15.8238C14.9831 15.8269 14.9774 15.8327 14.9719 15.8327C14.7036 15.8331 14.4354 15.8331 14.167 15.8331C14.1344 15.5553 14.1344 15.2776 14.167 14.9998V14.9997Z" fill="#FFDF80"/>
        <path d="M14.1667 14.9997V15.833H14.125V14.9997H14.1667Z" fill="#F0A415"/>
        <path d="M8.33342 4.99986C8.58977 4.99986 8.84623 4.99986 9.10258 4.99986C9.11008 5.01028 9.12404 5.02071 9.12414 5.03113C9.12539 5.27366 9.12497 5.51619 9.12539 5.75872C9.12539 5.77863 9.12685 5.79927 9.13206 5.81834C9.13622 5.83397 9.15091 5.83814 9.16685 5.83324C9.4307 5.72985 9.69465 5.72985 9.9585 5.83324C9.97444 5.83814 9.98913 5.83397 9.99329 5.81834C9.9984 5.79916 9.99986 5.77863 9.99986 5.75862C10.0003 5.52964 9.99996 5.30066 10.0003 5.07178C10.0003 5.05197 10.0032 5.03217 10.0046 5.01331C10.0993 4.99632 10.1503 4.99549 10.7724 5.00153C10.792 5.02112 10.8117 5.04082 10.8334 5.0625C10.8334 5.30993 10.8334 5.55945 10.8339 5.80886C10.8339 5.81417 10.8415 5.81938 10.8456 5.82459C10.8513 5.82751 10.8568 5.83158 10.8629 5.83293C10.8695 5.83439 10.8767 5.83324 10.8836 5.83324C11.1195 5.83324 11.3554 5.83324 11.5913 5.83345C11.5974 5.83345 11.6036 5.837 11.6 5.83585C11.6277 5.85972 11.6486 5.87775 11.6674 5.89401V6.64609C11.6766 6.66048 11.6879 6.66663 11.7018 6.66663C11.9446 6.66663 12.1875 6.66663 12.4348 6.66663C12.4522 6.68288 12.472 6.70144 12.4912 6.71926C12.4943 6.73302 12.4997 6.74573 12.4997 6.75845C12.5001 7.55577 12.5 8.35298 12.5 9.14571C12.4905 9.1552 12.4864 9.16177 12.4805 9.16458C12.4748 9.16729 12.4673 9.16656 12.4605 9.16656C12.2038 9.16656 11.9471 9.16656 11.6904 9.16718C11.6851 9.16718 11.6799 9.17511 11.6748 9.17938C11.6721 9.18522 11.667 9.19105 11.667 9.19678C11.6666 9.44661 11.6666 9.69633 11.667 9.94616C11.667 9.95919 11.6708 9.97222 11.6729 9.98525C11.6777 9.99014 11.6826 9.99932 11.6875 9.99932C11.9373 10 12.1871 9.99994 12.4383 9.99994C12.4568 10.0192 12.476 10.0392 12.5001 10.0645C12.5001 10.3075 12.5001 10.5567 12.5005 10.806C12.5005 10.8115 12.5069 10.8171 12.5102 10.8226C12.5157 10.8261 12.5212 10.8328 12.5266 10.8328C12.7759 10.8333 13.0251 10.8332 13.2708 10.8332C13.2941 10.8565 13.3137 10.8761 13.3333 10.8956C13.3333 11.7005 13.3333 12.5053 13.3328 13.3101C13.3328 13.3152 13.3246 13.3203 13.3186 13.3273C13.2663 13.341 13.2113 13.3307 13.1568 13.3326C13.1014 13.3346 13.0457 13.333 12.9903 13.333H12.5207C12.5096 13.3446 12.5008 13.3496 12.5008 13.3546C12.5001 13.6252 12.5001 13.8959 12.5001 14.1664C11.9537 14.1664 11.4071 14.1664 10.8607 14.1668C10.8552 14.1668 10.8496 14.1732 10.8441 14.1766C10.8406 14.1821 10.8339 14.1875 10.8339 14.193C10.8334 14.4557 10.8335 14.7182 10.8335 14.9779C10.8233 14.9941 10.812 14.9999 10.798 14.9999C10.542 14.9999 10.2861 14.9999 10.0302 14.9995C10.0243 14.9995 10.0186 14.9944 10.0128 14.9917C10.0086 14.9865 10.0007 14.9814 10.0007 14.9762C10.0001 14.7133 10.0002 14.4504 10.0002 14.1876C9.98923 14.1806 9.9784 14.1675 9.96746 14.1675C9.71153 14.1663 9.45559 14.1665 9.19966 14.1666C9.18081 14.1666 9.17122 14.1791 9.16685 14.2082C9.15091 14.2033 9.13622 14.2075 9.13206 14.2231C9.12695 14.2423 9.1255 14.2629 9.1255 14.2828C9.12508 14.4981 9.12539 14.7133 9.12497 14.9284C9.12497 14.9482 9.12195 14.9679 9.12039 14.9868C9.02102 15.003 8.88706 15.0048 8.35217 14.9976C8.33874 14.9893 8.33342 14.978 8.33342 14.9637C8.33363 14.7138 8.33342 14.4639 8.33405 14.214C8.33405 14.1986 8.33363 14.1862 8.32301 14.1766C8.31749 14.1732 8.31197 14.1668 8.30645 14.1668C7.76552 14.1664 7.22459 14.1664 6.68783 14.1664C6.67876 14.1574 6.6696 14.1525 6.6696 14.1476C6.66824 13.6203 6.66762 13.0929 6.66751 12.5656C6.66751 12.5604 6.67522 12.5552 6.68241 12.546C6.69887 12.5447 6.71855 12.5417 6.73835 12.5417C6.9674 12.5414 7.19657 12.5415 7.42563 12.5414C7.44479 12.5414 7.45438 12.529 7.45865 12.4998C7.47448 12.5047 7.48792 12.5004 7.49365 12.485C7.49812 12.4729 7.5001 12.4591 7.5001 12.4462C7.50042 11.0819 7.50031 9.71749 7.50031 8.35371C7.48823 8.34652 7.47719 8.33422 7.46604 8.33412C7.22365 8.33297 6.98115 8.33339 6.73876 8.33307C6.71907 8.33307 6.69928 8.33016 6.68283 8.32891C6.67553 8.32005 6.66751 8.31494 6.66751 8.30973C6.66699 7.78329 6.66699 7.25695 6.66699 6.73051C6.67751 6.72311 6.68793 6.70925 6.69855 6.70925C6.92709 6.708 7.15573 6.70842 7.38427 6.708C7.40417 6.708 7.42479 6.70644 7.44386 6.70133C7.45948 6.69716 7.46354 6.68247 7.45875 6.66663C7.47448 6.67142 7.48906 6.66735 7.49333 6.65193C7.49854 6.63296 7.5001 6.61264 7.50021 6.59283C7.50062 6.35937 7.50052 6.12601 7.50052 5.89776C7.51177 5.879 7.52312 5.87462 7.5376 5.87462C7.77833 5.87493 8.01905 5.87483 8.25978 5.87483C8.27822 5.87483 8.2877 5.86232 8.29218 5.83324C8.3078 5.83804 8.32238 5.83397 8.32665 5.81876C8.33186 5.8 8.33353 5.77967 8.33363 5.75997C8.33405 5.5066 8.33395 5.25323 8.33395 4.99986H8.33342Z" fill="#FFC50F"/>
        <path d="M7.45822 12.4997C7.20166 12.4997 6.94521 12.4997 6.68865 12.4997C6.68125 12.4891 6.66854 12.4789 6.66761 12.4679C6.66479 12.4335 6.66657 12.3987 6.66657 12.364V8.39561C6.67448 8.38769 6.67938 8.37852 6.68438 8.37841C6.93354 8.37675 7.1827 8.3757 7.43187 8.37518C7.43728 8.37518 7.4427 8.38196 7.44822 8.3855C7.45155 8.39103 7.4578 8.39655 7.4578 8.40218C7.45822 9.76804 7.45822 11.1338 7.45822 12.4997Z" fill="#B85316"/>
        <path d="M6.62564 14.1586C6.42325 14.1687 6.04002 14.1688 5.84794 14.1595C5.84325 14.1545 5.83461 14.1495 5.83461 14.1445C5.83398 13.6036 5.83398 13.0627 5.83398 12.5219C5.84451 12.5145 5.85513 12.5007 5.86565 12.5007C6.10835 12.4995 6.35106 12.4998 6.59376 12.5001C6.5997 12.5001 6.60574 12.5044 6.61168 12.5067C6.61637 12.5117 6.62501 12.5167 6.62501 12.5217C6.62564 13.0625 6.62564 13.6034 6.62564 14.1586Z" fill="#B85316"/>
        <path d="M6.61236 8.32539C6.43965 8.33529 6.06528 8.33613 5.84872 8.32695C5.84362 8.32195 5.83445 8.31705 5.83445 8.31226C5.83383 7.7853 5.83383 7.25834 5.83445 6.73127C5.83445 6.72617 5.84268 6.72106 5.84695 6.71585C6.01966 6.70595 6.39403 6.70511 6.61059 6.71428C6.61569 6.71929 6.62486 6.72419 6.62486 6.72898C6.62548 7.25594 6.62548 7.7829 6.62486 8.30997C6.62486 8.31507 6.61663 8.32018 6.61236 8.32539Z" fill="#B85316"/>
        <path d="M9.16699 14.2081C9.42261 14.2081 9.67834 14.2081 9.93396 14.2086C9.93927 14.2086 9.94448 14.216 9.94979 14.22C9.95281 14.2257 9.95833 14.2314 9.95833 14.237C9.95875 14.4854 9.95875 14.7337 9.95875 14.9838C9.90604 15.0161 9.85 14.9942 9.79709 14.9988C9.74907 15.003 9.70042 14.9996 9.65209 14.9996H9.48626C9.43793 14.9996 9.38949 15.0014 9.34116 14.9991C9.28709 14.9965 9.2322 15.0087 9.18074 14.9931C9.17501 14.9855 9.16751 14.9801 9.16751 14.9749C9.16699 14.7193 9.16699 14.4636 9.16699 14.2079V14.2081Z" fill="#B85316"/>
        <path d="M8.29176 5.83328C8.03614 5.83328 7.78041 5.83328 7.52479 5.83276C7.51948 5.83276 7.51427 5.82536 7.50896 5.82129C7.50594 5.81556 7.50042 5.80993 7.50042 5.80431C7.5 5.55594 7.5 5.30767 7.5 5.05753C7.55271 5.02523 7.60875 5.04711 7.66166 5.04253C7.70968 5.03836 7.75833 5.04169 7.80666 5.04169H8.27301C8.28374 5.05587 8.29113 5.06108 8.29113 5.06639C8.29165 5.32206 8.29165 5.57772 8.29165 5.83338L8.29176 5.83328Z" fill="#B85316"/>
        <path d="M8.29165 14.9924C8.08135 15.0021 7.7027 15.002 7.51396 14.9928C7.50927 14.9878 7.50062 14.9828 7.50062 14.9778C7.5 14.7284 7.5 14.479 7.5 14.2296C7.51073 14.2224 7.52146 14.2091 7.53229 14.2091C7.77479 14.2079 8.01728 14.2081 8.25978 14.2084C8.26572 14.2084 8.27176 14.2127 8.2777 14.215C8.28238 14.22 8.29103 14.225 8.29103 14.23C8.29165 14.4794 8.29165 14.7288 8.29165 14.9925V14.9924Z" fill="#B85316"/>
        <path d="M7.45875 6.66653H6.6822C6.67303 6.64892 6.66741 6.64329 6.66741 6.63756C6.66699 6.38919 6.66699 6.14093 6.66699 5.89079C6.7197 5.85848 6.77574 5.88036 6.82866 5.87578C6.87668 5.87161 6.92532 5.87494 6.97365 5.87494H7.44C7.45073 5.88912 7.45813 5.89433 7.45813 5.89965C7.45865 6.15531 7.45865 6.41097 7.45865 6.66664L7.45875 6.66653Z" fill="#B85316"/>
        <path d="M9.95865 5.83324H9.16699C9.16699 5.56278 9.16699 5.29242 9.16699 5.02196C9.17762 5.01466 9.18814 5.0009 9.19876 5.0009C9.44147 4.99965 9.68417 4.99997 9.92688 5.00028C9.93281 5.00028 9.93885 5.00466 9.94479 5.00695C9.94938 5.01195 9.95802 5.01696 9.95813 5.02196C9.95875 5.29242 9.95875 5.56278 9.95875 5.83324H9.95865Z" fill="#B85316"/>
        <path d="M10.0003 12.4997C9.7298 12.4997 9.45929 12.4997 9.18877 12.4997C9.18148 12.4891 9.16783 12.4783 9.16783 12.4677C9.16679 11.9336 9.16689 11.3996 9.16721 10.8655C9.16721 10.8595 9.17127 10.8535 9.1721 10.8511C9.17908 10.8433 9.18367 10.8338 9.18825 10.8338C9.72928 10.833 10.2702 10.8331 10.8112 10.8331C10.8186 10.8437 10.8326 10.8541 10.8326 10.8646C10.8336 11.3987 10.8335 11.9327 10.8335 12.4668C10.8335 12.4858 10.8211 12.4954 10.7919 12.4997C10.7212 12.4189 10.7284 12.3194 10.7279 12.223C10.726 11.8902 10.7279 11.5573 10.7268 11.2245C10.7265 11.1421 10.734 11.0578 10.6812 10.9636C10.4934 10.9255 10.2989 10.9254 10.1156 10.9628C10.0552 11.0573 10.0659 11.1424 10.0655 11.2245C10.0639 11.5573 10.066 11.8902 10.0642 12.223C10.0637 12.3195 10.0708 12.4189 10.0002 12.4997H10.0003Z" fill="#E18E11"/>
        <path d="M10.0003 9.16647C9.7298 9.16647 9.45929 9.16647 9.18877 9.16647C9.18148 9.15584 9.16783 9.14511 9.16783 9.13448C9.16679 8.60043 9.16689 8.06638 9.16721 7.53233C9.16721 7.52629 9.17127 7.52024 9.1721 7.51774C9.17898 7.51003 9.18367 7.50044 9.18825 7.50044C9.72928 7.49982 10.2702 7.49982 10.8112 7.49982C10.8186 7.51034 10.8326 7.52077 10.8326 7.53129C10.8336 8.06534 10.8335 8.59939 10.8334 9.13344C10.8334 9.15251 10.821 9.1621 10.7918 9.16637C10.7211 9.0856 10.7283 8.98606 10.7278 8.88965C10.7259 8.55686 10.7278 8.22397 10.7267 7.89118C10.7263 7.80874 10.7338 7.72453 10.6811 7.63031C10.4933 7.59216 10.2988 7.59206 10.1155 7.62947C10.0551 7.724 10.0658 7.80905 10.0654 7.89118C10.0638 8.22397 10.0659 8.55686 10.0641 8.88965C10.0635 8.98617 10.0707 9.0856 10.0001 9.16637L10.0003 9.16647Z" fill="#F0A415"/>
        <path d="M10.0001 9.16648C10.0001 8.63223 10.0001 8.09797 10.0001 7.56371C10.0106 7.55631 10.0211 7.54245 10.0317 7.54245C10.2745 7.5412 10.5173 7.54141 10.7602 7.54183C10.7661 7.54183 10.7721 7.54631 10.778 7.5486C10.7826 7.5536 10.7911 7.55871 10.7911 7.56371C10.7918 8.09797 10.7917 8.63223 10.7917 9.16638H10L10.0001 9.16648Z" fill="#B85316"/>
        <path d="M10.0001 12.4997C10.0001 11.9654 10.0001 11.4312 10.0001 10.8969C10.0106 10.8895 10.0211 10.8756 10.0317 10.8756C10.2745 10.8744 10.5173 10.8746 10.7602 10.875C10.7661 10.875 10.7721 10.8795 10.778 10.8819C10.7826 10.8869 10.7911 10.892 10.7911 10.897C10.7918 11.4313 10.7917 11.9655 10.7917 12.4997H10H10.0001Z" fill="#B85316"/>
    </g>
    <defs>
        <filter id="filter0_d_1380_524" x="0" y="-0.00012207" width="24" height="22.0001" filterUnits="userSpaceOnUse" color-interpolation-filters="sRGB">
            <feFlood flood-opacity="0" result="BackgroundImageFix"/>
            <feColorMatrix in="SourceAlpha" type="matrix" values="0 0 0 0 0 0 0 0 0 0 0 0 0 0 0 0 0 0 127 0" result="hardAlpha"/>
            <feOffset dx="4" dy="2"/>
            <feComposite in2="hardAlpha" operator="out"/>
            <feColorMatrix type="matrix" values="0 0 0 0 0 0 0 0 0 0 0 0 0 0 0 0 0 0 0.32 0"/>
            <feBlend mode="normal" in2="BackgroundImageFix" result="effect1_dropShadow_1380_524"/>
            <feBlend mode="normal" in="SourceGraphic" in2="effect1_dropShadow_1380_524" result="shape"/>
        </filter>
    </defs>
</svg>