<svg xmlns="http://www.w3.org/2000/svg" width="36" height="36" viewBox="0 0 36 36" fill="none">
    <g clip-path="url(#clip0_1488_9113)">
        <path fill-rule="evenodd" clip-rule="evenodd" d="M18 36C27.9405 36 36 27.9405 36 18C36 8.0595 27.9405 0 18 0C8.0595 0 0 8.0595 0 18C0 27.9405 8.0595 36 18 36ZM15.4017 8.51192C14.6726 8.02845 13.883 7.64201 13.053 7.36246L13.0519 7.36356C13.0148 7.35099 12.9769 7.33805 12.9384 7.32487C12.1777 7.06495 11.1526 6.71466 10.532 7.39763C10.0822 7.89304 9.98756 8.64318 9.90701 9.28166L9.90638 9.28665L9.90086 9.32841C9.81244 10.0262 9.79254 10.9361 10.0246 11.8372C9.13934 12.9757 8.6055 14.3339 8.6055 15.8131C8.6055 18.0582 9.82791 20.0054 11.6372 21.3549C12.5079 21.9961 13.4737 22.4989 14.4998 22.845C14.2591 23.3931 14.1339 23.9843 14.1318 24.5824L13.9472 24.6197C13.1536 24.7274 12.6463 24.6318 12.3004 24.4857C11.6607 24.2154 11.2581 23.6347 10.8682 23.0722C10.7461 22.8961 10.6253 22.7218 10.4988 22.5593C10.1705 22.1351 9.69086 21.6076 8.95476 21.3637C8.67658 21.2716 8.373 21.2931 8.1108 21.4236C7.84859 21.554 7.64925 21.7827 7.55662 22.0593C7.46399 22.3359 7.48566 22.6377 7.61687 22.8984C7.68183 23.0275 7.77174 23.1426 7.88144 23.2371C7.99114 23.3317 8.1185 23.4038 8.25624 23.4494C8.67938 23.5896 9.01303 24.1282 9.30716 24.603C9.44174 24.8202 9.56804 25.024 9.69086 25.1703C10.1031 25.6626 10.6513 26.1769 11.4383 26.5088C12.1909 26.8264 13.0762 26.9406 14.1318 26.8121V27.9011C14.1318 28.1925 14.2482 28.4721 14.4555 28.6781C14.6627 28.8842 14.9439 29 15.237 29H21.8685C22.1616 29 22.4428 28.8842 22.65 28.6781C22.8573 28.4721 22.9738 28.1925 22.9738 27.9011V24.6044C22.9738 23.9791 22.8422 23.3835 22.6057 22.845C23.6318 22.4988 24.5976 21.9961 25.4683 21.3549C27.2776 20.0054 28.5 18.0571 28.5 15.8131C28.5 14.3317 27.9651 12.9724 27.0775 11.8328C27.3096 10.9317 27.2886 10.024 27.2002 9.32731C27.1218 8.70313 27.0112 7.88554 26.5691 7.39763C25.9484 6.71456 24.9241 7.06405 24.1625 7.32389C24.124 7.33703 24.0862 7.34993 24.0492 7.36246C23.2196 7.64176 22.4304 8.02783 21.7016 8.51082C20.7091 8.25697 19.6503 8.12071 18.5528 8.12071C17.49 8.11884 16.4313 8.25028 15.4017 8.51192Z" fill="#E78D24"/>
    </g>
    <defs>
        <clipPath id="clip0_1488_9113">
            <rect width="36" height="36" fill="white"/>
        </clipPath>
    </defs>
</svg>