<svg xmlns="http://www.w3.org/2000/svg" width="166" height="24" viewBox="0 0 166 24" fill="none">
    <path d="M14.7246 23.2118H1.98358C1.99033 17.7778 1.93139 12.3427 2.03699 6.91059C2.07874 4.76979 1.96516 2.80275 0.24246 1.27466C0.12397 1.16968 0.108008 0.949278 0.0441589 0.782288L15.0015 0.782288C15.4699 0.94498 15.9377 1.1089 16.4074 1.26914C19.6379 2.37606 21.2255 5.9553 19.6299 8.9642C19.0485 10.0607 17.9164 10.8656 17.0514 11.7877C16.9974 11.7601 17.1103 11.8245 17.2282 11.8773C19.6502 12.9658 21.069 15.3626 20.7522 17.8325C20.3906 20.6492 18.6046 22.4751 15.7756 22.9392C15.4202 22.9975 15.0751 23.1191 14.7252 23.2118H14.7246ZM6.73728 18.9959C9.11075 18.9959 11.3578 19.0972 13.5894 18.9597C15.0512 18.8694 15.8646 17.8227 15.9003 16.4935C15.934 15.2245 15.1598 14.0046 13.881 13.9223C11.5235 13.7707 9.14881 13.8787 6.73728 13.8787V18.9959ZM6.75692 9.67759C8.99164 9.67759 11.1073 9.73714 13.218 9.6561C14.5809 9.60392 15.4987 8.57619 15.5129 7.34832C15.5264 6.17816 14.673 5.06755 13.4077 5.0037C11.2172 4.89258 9.01682 4.97301 6.75754 4.97301V9.67759H6.75692Z" fill="#A9A29D"/>
    <path d="M43.5303 23.212C43.5236 17.514 43.4493 11.8149 43.5494 6.11818C43.5807 4.34882 43.2461 2.88704 41.9587 1.66347C41.699 1.41667 41.5264 1.079 41.314 0.782471C43.7151 0.782471 46.1156 0.782471 48.5161 0.782471C48.6272 1.02375 48.7003 1.29326 48.8544 1.502C51.9965 5.7492 55.1472 9.99027 58.3028 14.2276C58.3906 14.3455 58.5509 14.4088 58.7639 14.5579V0.782471H63.7497C63.7098 1.60637 63.6367 2.43089 63.6355 3.25479C63.6257 9.24618 63.6299 15.2382 63.6299 21.2296V23.0045C62.1356 23.0045 60.8034 23.0726 59.4865 22.9633C59.0899 22.9302 58.6515 22.4667 58.3734 22.0946C55.3928 18.1114 52.4416 14.1067 49.4794 10.11C49.1626 9.68268 48.8304 9.26644 48.2386 8.4984V23.212H43.5297H43.5303Z" fill="#A9A29D"/>
    <path d="M117.207 0.782471V22.9793C115.736 22.9793 114.327 23.0388 112.931 22.9369C112.589 22.9118 112.236 22.3948 111.973 22.0412C108.917 17.9389 105.877 13.8243 102.83 9.71584C102.621 9.43343 102.385 9.17066 101.973 8.66846V23.2126H96.9869C97.012 18.0076 96.9899 12.8021 97.0845 7.59838C97.1287 5.17149 97.2067 2.80539 95.1303 1.0391C95.072 0.989981 95.0745 0.870263 95.0481 0.783085C97.3565 0.783085 99.6642 0.783085 101.973 0.783085C105.388 5.38514 108.803 9.98658 112.218 14.5886C112.311 14.5303 112.405 14.4726 112.498 14.4143V0.782471H117.207H117.207Z" fill="#A9A29D"/>
    <path d="M142.69 23.212C144.415 18.7076 146.139 14.2019 147.868 9.69871C148.445 8.19641 148.988 6.67815 149.637 5.20777C150.106 4.14689 150.238 3.24993 149.263 2.38244C148.754 1.92997 148.384 1.32156 147.952 0.783142C150.999 0.783142 154.046 0.783142 157.092 0.783142C158.953 5.5129 160.799 10.2488 162.68 14.9706C163.742 17.6375 164.862 20.2811 165.956 22.9351C165.54 23.0272 165.126 23.1899 164.709 23.1991C163.278 23.2323 161.847 23.212 160.416 23.212C160.094 22.2205 159.855 21.1891 159.409 20.2565C159.215 19.8495 158.609 19.4204 158.165 19.3915C156.566 19.2878 154.955 19.3406 153.349 19.3534C152.067 19.3639 150.418 18.9243 149.6 19.553C148.665 20.2713 148.469 21.9504 147.952 23.212H142.69ZM154.157 5.44782C152.897 8.90059 151.774 11.9801 150.613 15.1621H157.74C156.56 11.9629 155.426 8.89015 154.157 5.44782Z" fill="#A9A29D"/>
    <path d="M133.549 0.782471C134.992 1.34422 136.538 1.73407 137.847 2.51868C139.029 3.22593 139.951 4.36417 141.159 5.46925C139.708 6.27535 138.556 6.91568 137.288 7.62048C135.766 5.63501 133.773 4.64965 131.22 4.88417C128.46 5.13711 126.17 7.13424 125.415 10.0412C124.6 13.1747 125.776 16.4998 128.267 18.1071C130.593 19.6082 134.248 19.6033 136.168 17.81C136.771 17.247 136.713 15.9774 136.965 15.0037C133.667 14.4155 133.291 14.1399 131.214 10.8768C133.069 10.8768 134.794 10.8768 136.519 10.8768C137.718 10.8768 138.919 10.9173 140.116 10.8645C140.978 10.8264 141.231 11.1764 141.214 12.0003C141.171 14.0742 141.223 16.1505 141.181 18.2244C141.172 18.6474 141.047 19.1895 140.767 19.4676C137.303 22.9105 133.095 23.7424 128.514 22.552C124.227 21.4371 121.466 18.6154 120.625 14.2111C119.369 7.62846 123.222 2.22767 129.881 1.03603C130.096 0.997348 130.295 0.869649 130.502 0.783699C131.518 0.783699 132.533 0.783699 133.549 0.783699V0.782471Z" fill="#A9A29D"/>
    <path d="M39.6528 0.782474V4.90075H28.562V9.69251H37.5844V13.7095H28.5921V18.9813H39.5042V22.9418H23.7242C23.7242 22.3242 23.7242 21.7815 23.7242 21.2388C23.7242 14.9662 23.7273 8.69364 23.7181 2.42107C23.7175 1.87466 23.6327 1.32826 23.5873 0.78186C28.9421 0.78186 34.2974 0.78186 39.6521 0.78186L39.6528 0.782474Z" fill="#A9A29D"/>
    <path d="M83.416 0.782471C83.389 0.917536 83.3184 1.05997 83.3411 1.18583C83.8089 3.83618 82.5694 5.80507 80.9854 7.77887C78.3351 11.0831 75.8689 14.5352 73.3321 17.9303C73.1258 18.2059 72.9705 18.5197 72.6906 18.9826H83.3251V22.9302H66.5647C66.4162 21.0055 66.2719 19.2932 67.641 17.5896C70.6394 13.8587 73.3947 9.93194 76.2477 6.08318C76.4632 5.79218 76.6597 5.48767 77.028 4.95416H66.5199V0.782471C72.1521 0.782471 77.7838 0.782471 83.416 0.782471Z" fill="#A9A29D"/>
    <path d="M92.0025 0.782471V23.212H87.2936V0.782471H92.0025Z" fill="#A9A29D"/>
</svg>