<svg xmlns="http://www.w3.org/2000/svg" width="114" height="36" viewBox="0 0 114 36" fill="none">
    <path d="M0.124695 0.824449C0.16113 0.819176 0.197565 0.809509 0.234 0.809509C2.03265 0.813903 3.83175 0.8016 5.62996 0.831919C6.54217 0.847298 7.41973 1.06348 8.20753 1.54463C9.28637 2.2033 9.77735 3.19986 9.84756 4.41877C9.90132 5.35162 9.71159 6.22428 9.09619 6.96555C8.95667 7.1334 8.79005 7.28456 8.61543 7.41682C8.44791 7.54381 8.25329 7.63696 8.08889 7.73407C8.36438 7.89753 8.67585 8.04209 8.93934 8.24641C9.81779 8.92661 10.2741 9.83354 10.3048 10.9342C10.3412 12.2349 9.97241 13.3769 8.89269 14.2087C8.21464 14.7307 7.42151 14.9825 6.5795 15.0818C6.16183 15.131 5.73838 15.1481 5.3176 15.1499C3.68157 15.1573 2.04554 15.1525 0.409956 15.1538C0.314869 15.1538 0.219782 15.1675 0.124695 15.1749C0.124695 10.3916 0.124695 5.60823 0.124695 0.824449ZM2.45699 13.0381C3.5967 13.0381 4.70664 13.0403 5.81658 13.0355C5.96321 13.035 6.11162 13.01 6.25602 12.9797C7.04027 12.8145 7.653 12.4238 7.87161 11.6232C8.08934 10.8257 8.01158 10.0611 7.37441 9.4495C6.91986 9.01317 6.33556 8.86685 5.72283 8.8563C4.67909 8.83873 3.63491 8.84752 2.59073 8.8462C2.54852 8.8462 2.50676 8.85674 2.45699 8.86333V13.0377V13.0381ZM2.45388 6.79375C3.56071 6.79375 4.64266 6.83856 5.71883 6.781C6.75945 6.7252 7.3944 6.1509 7.52237 5.251C7.56591 4.94561 7.54503 4.62177 7.49615 4.31507C7.41351 3.79877 7.11581 3.39979 6.62393 3.2047C6.27957 3.06804 5.90323 2.95643 5.53621 2.94018C4.55379 2.89711 3.56871 2.91162 2.58451 2.90502C2.5423 2.90502 2.50054 2.9204 2.45388 2.92963V6.79375Z" fill="#A9A29D"/>
    <path d="M61.8434 35.45C61.8447 34.4702 61.8474 33.4903 61.8478 32.51C61.8483 28.9337 61.8478 25.3574 61.8478 21.7811V21.5073C61.9372 21.5029 62.0087 21.4959 62.0802 21.4959C63.8056 21.4955 65.5309 21.4946 67.2562 21.4959C68.487 21.4968 69.6716 21.7081 70.7731 22.2728C72.2603 23.0351 73.2592 24.222 73.7644 25.7867C74.4167 27.8079 74.3838 29.8292 73.5124 31.7837C72.654 33.7096 71.1055 34.8261 69.0438 35.269C68.6626 35.3507 68.272 35.3907 67.8859 35.45H61.843H61.8434ZM64.2632 33.3638C65.5167 33.3409 66.751 33.3914 67.9703 33.279C69.7027 33.1194 70.902 32.1857 71.4667 30.5344C71.8315 29.4676 71.8604 28.3691 71.6831 27.2635C71.5414 26.3812 71.2241 25.5714 70.6083 24.8991C69.8285 24.0475 68.8212 23.6578 67.6895 23.6086C66.596 23.5611 65.4989 23.5888 64.4036 23.5844C64.361 23.5844 64.3183 23.5954 64.2632 23.6028V33.3633V33.3638Z" fill="#A9A29D"/>
    <path d="M94.4567 35.4482C94.4625 35.3467 94.4741 35.2448 94.4741 35.1433C94.4749 30.6965 94.4749 26.2497 94.4749 21.8025V21.5077C94.5589 21.502 94.6229 21.4941 94.6864 21.4941C96.2931 21.4932 97.9003 21.4914 99.507 21.4941C100.313 21.4954 101.101 21.6052 101.848 21.922C103.227 22.5078 103.955 23.5685 104.138 25.0168C104.224 25.6899 104.188 26.3618 104.038 27.0231C103.699 28.5201 102.713 29.3506 101.224 29.6507C101.174 29.6608 101.123 29.6696 101.072 29.6815C101.051 29.6863 101.031 29.6977 100.987 29.7157C101.077 29.8208 101.161 29.9192 101.245 30.0172C102.749 31.7585 104.254 33.4995 105.757 35.2412C105.815 35.3076 105.867 35.3783 105.921 35.4469H103.255C103.214 35.3876 103.179 35.3239 103.133 35.2694C101.664 33.5381 100.19 31.8117 98.7307 30.073C98.5472 29.8546 98.3655 29.761 98.0798 29.7777C97.6626 29.8019 97.2427 29.7839 96.8126 29.7839V35.4469H94.4576L94.4567 35.4482ZM96.8161 27.7969C97.8252 27.7969 98.8196 27.8588 99.8025 27.7815C101.081 27.6809 101.738 27.0187 101.859 25.8837C101.967 24.8735 101.439 24.011 100.495 23.7034C100.225 23.6155 99.9327 23.5615 99.6487 23.5544C98.7543 23.5329 97.859 23.5412 96.9641 23.5395C96.9161 23.5395 96.8681 23.5536 96.8161 23.5619V27.7969Z" fill="#A9A29D"/>
    <path d="M78.5946 35.4507C78.5973 35.3558 78.6017 35.2609 78.6017 35.166C78.6017 30.7122 78.6017 26.2584 78.6017 21.8042V21.5102H87.4044V23.5772H81.038V26.9355H86.7432V29.0025H81.0318V33.3363H87.4364V35.4507H78.5942H78.5946Z" fill="#A9A29D"/>
    <path d="M113.874 11.7508C113.837 11.9279 113.804 12.1063 113.76 12.2816C113.412 13.6697 112.477 14.519 111.16 14.9923C109.799 15.4818 108.402 15.4638 106.999 15.1953C106.121 15.027 105.292 14.7238 104.53 14.2528C104.387 14.1644 104.317 14.0695 104.32 13.8885C104.333 13.1358 104.325 12.3822 104.325 11.5931C104.399 11.6418 104.453 11.6726 104.501 11.7099C105.679 12.6125 107.001 13.1468 108.498 13.2215C109.169 13.2549 109.831 13.2079 110.459 12.9438C111.105 12.6718 111.499 12.2056 111.549 11.4981C111.597 10.8087 111.359 10.2335 110.747 9.87543C110.33 9.63156 109.88 9.43383 109.43 9.25236C108.5 8.87711 107.551 8.54668 106.628 8.15605C106.252 7.99742 105.902 7.75795 105.579 7.50661C104.569 6.72008 104.195 5.64486 104.218 4.41013C104.251 2.71184 105.232 1.40505 106.961 0.880843C109.07 0.241511 111.085 0.542941 112.982 1.63837C113.051 1.67792 113.125 1.7781 113.127 1.85105C113.136 2.60418 113.132 3.35776 113.131 4.1109C113.131 4.13067 113.119 4.15044 113.107 4.19351C112.974 4.09947 112.85 4.01203 112.727 3.92459C111.48 3.04447 110.109 2.58221 108.562 2.70964C108.054 2.75138 107.568 2.87222 107.15 3.17892C106.357 3.76113 106.297 5.01255 107.063 5.63036C107.355 5.86588 107.71 6.04295 108.062 6.184C109.124 6.60891 110.212 6.97098 111.261 7.42268C111.761 7.63799 112.233 7.95831 112.652 8.3072C113.382 8.9127 113.734 9.73394 113.834 10.6646C113.839 10.7208 113.861 10.7749 113.875 10.8303V11.7517L113.874 11.7508Z" fill="#A9A29D"/>
    <path d="M40.2484 35.4485C39.8472 35.3896 39.4442 35.3426 39.0456 35.2701C38.1739 35.111 37.3461 34.8272 36.5791 34.3799C36.4418 34.2999 36.3908 34.2076 36.3925 34.0481C36.4019 33.3402 36.3965 32.6319 36.3965 31.8744C36.4912 31.9381 36.5543 31.979 36.6156 32.0225C37.9566 32.9738 39.4469 33.4646 41.1033 33.4233C41.6907 33.4088 42.2626 33.313 42.7985 33.0445C43.9182 32.483 43.8968 30.9209 42.9824 30.3686C42.5385 30.1005 42.0529 29.8892 41.5668 29.7015C40.6377 29.3434 39.6868 29.0402 38.7613 28.6738C38.3751 28.5209 38.017 28.2836 37.67 28.0503C35.8273 26.8107 35.5905 23.3935 38.2387 22.1064C39.1843 21.6468 40.1867 21.4755 41.2295 21.497C42.567 21.5247 43.8377 21.8112 45.0174 22.4562C45.1819 22.5459 45.2418 22.6465 45.2387 22.8328C45.2267 23.5183 45.2338 24.2042 45.2338 24.9358C45.1001 24.8452 44.9992 24.7776 44.8988 24.7095C43.6325 23.85 42.2444 23.4049 40.6968 23.5117C40.1742 23.5477 39.6704 23.6567 39.23 23.9572C38.4276 24.5056 38.3747 25.6907 39.1536 26.2724C39.4549 26.4974 39.8134 26.6635 40.1689 26.7971C41.2326 27.1965 42.3195 27.5384 43.3734 27.9606C43.8524 28.1526 44.3127 28.4361 44.7166 28.7573C45.7462 29.5763 46.0647 30.7047 45.9537 31.957C45.8119 33.5586 44.8277 34.5187 43.3663 35.0363C42.8296 35.2266 42.2462 35.2872 41.6836 35.4072C41.6196 35.4208 41.5557 35.4344 41.4917 35.4481H40.2475L40.2484 35.4485Z" fill="#A9A29D"/>
    <path d="M8.92322 35.451C8.92988 35.3495 8.94277 35.2484 8.94277 35.1469C8.94366 30.7028 8.94366 26.2591 8.94366 21.815V21.5052H11.5892V35.451H8.92322Z" fill="#A9A29D"/>
    <path d="M52.1558 35.4503V21.5102H54.7755C54.78 21.5796 54.7884 21.6495 54.7884 21.7194C54.7889 26.2382 54.7889 30.7566 54.7884 35.2754C54.7884 35.3334 54.7813 35.3919 54.7773 35.4499H52.1558V35.4503Z" fill="#A9A29D"/>
    <path d="M69.2672 15.34C66.0822 12.1692 62.8973 8.99849 59.7128 5.82775C59.691 5.83786 59.6688 5.84797 59.647 5.85763V15.1194H57.3591V0.586548C60.5899 3.7129 63.7953 6.81421 67.0344 9.94848V0.800977H69.3281V15.2956C69.3076 15.3105 69.2872 15.325 69.2672 15.34Z" fill="#A9A29D"/>
    <path d="M18.6634 21.5177C21.9865 24.4683 25.2799 27.3926 28.6178 30.3559V21.7247H30.9709V35.4328C27.6438 32.4268 24.3482 29.449 21.0183 26.4404V35.2166H18.6634V21.5177Z" fill="#A9A29D"/>
    <path d="M15.4655 0.819519H17.8467C17.8467 0.916627 17.8467 1.00231 17.8467 1.08799C17.8467 3.77231 17.848 6.45663 17.8463 9.14094C17.8458 9.86903 17.9094 10.5866 18.1577 11.2782C18.5883 12.4769 19.5076 13.1606 20.7984 13.1958C21.2454 13.2081 21.7075 13.1857 22.1398 13.0841C23.2551 12.8223 23.8616 12.0414 24.1602 10.9922C24.3357 10.3748 24.3842 9.74161 24.3842 9.10315C24.3833 6.43334 24.3842 3.76396 24.3842 1.09415V0.821277H26.7751C26.7751 0.908279 26.7751 0.986053 26.7751 1.06427C26.7751 3.82899 26.7764 6.59372 26.7742 9.35845C26.7733 10.337 26.66 11.2993 26.2908 12.2172C25.6905 13.7081 24.6081 14.6853 23.0472 15.1265C21.7955 15.4802 20.5287 15.4921 19.2752 15.1511C17.3131 14.6172 16.1427 13.3109 15.6873 11.3823C15.5437 10.7755 15.4709 10.1393 15.466 9.51575C15.4429 6.68556 15.4553 3.85492 15.4558 1.02428C15.4558 0.960128 15.4624 0.895536 15.4664 0.819519H15.4655Z" fill="#A9A29D"/>
    <path d="M84.2842 0.824524V2.95212H78.108V6.40407H83.6453V8.52771H78.1089V12.9758H84.2793V15.1372H75.7615V0.824524H84.2842Z" fill="#A9A29D"/>
    <path d="M89.8773 11.5765C90.5349 12.098 91.2001 12.5036 91.9395 12.7774C93.1512 13.226 94.3913 13.3943 95.6607 13.0621C96.3481 12.8819 96.8822 12.5054 97.0546 11.7681C97.2292 11.0228 96.9955 10.3013 96.3339 9.91201C95.7612 9.57499 95.1262 9.33771 94.5095 9.07759C93.6132 8.6997 92.6713 8.41101 91.8159 7.96018C89.8711 6.93593 89.1664 4.5469 90.2003 2.67548C90.7598 1.66309 91.668 1.07429 92.7668 0.797906C94.7898 0.288637 96.712 0.584795 98.5187 1.62003C98.6417 1.69077 98.6862 1.77426 98.6844 1.91707C98.6764 2.66801 98.6809 3.41939 98.6809 4.21383C98.5329 4.10749 98.4165 4.02357 98.2992 3.94052C97.043 3.04809 95.6594 2.57793 94.0967 2.70843C93.6728 2.74358 93.2702 2.85124 92.8903 3.04985C91.8133 3.61272 91.8453 5.18799 92.7388 5.73285C93.144 5.97979 93.5893 6.17005 94.0327 6.34669C94.9578 6.71535 95.906 7.02909 96.8213 7.41884C97.7877 7.83056 98.6004 8.44572 99.0443 9.43043C99.6588 10.7935 99.6495 12.9136 98.1588 14.169C97.4154 14.7951 96.5441 15.1383 95.5901 15.2745C93.7585 15.5364 92.0123 15.2736 90.3599 14.4242C89.9982 14.2384 89.836 14.0222 89.8662 13.5969C89.9124 12.9435 89.8782 12.2844 89.8782 11.576L89.8773 11.5765Z" fill="#A9A29D"/>
    <path d="M41.2227 4.22709C41.057 4.10976 40.9277 4.01749 40.7979 3.92565C39.5778 3.06442 38.2328 2.61096 36.7199 2.71246C36.2431 2.74454 35.7832 2.84648 35.3695 3.09826C34.4342 3.66772 34.3285 5.00439 35.1914 5.67668C35.4873 5.90736 35.8459 6.07566 36.1987 6.21583C37.2335 6.62755 38.2839 7.0006 39.3188 7.41232C39.6382 7.53931 39.9399 7.72166 40.2283 7.91017C41.2423 8.57279 41.8008 9.51487 41.9221 10.7065C42.0416 11.8797 41.8394 12.9673 41.0081 13.8724C40.3638 14.5737 39.5462 14.9894 38.6234 15.1849C36.5292 15.6287 34.5377 15.3519 32.6676 14.2969C32.484 14.1932 32.3992 14.075 32.4058 13.8487C32.4258 13.1914 32.413 12.5327 32.413 11.8745V11.5976C32.5725 11.7136 32.6938 11.8037 32.8173 11.8916C34.0943 12.799 35.5117 13.2757 37.0927 13.2371C37.6054 13.2243 38.1044 13.1373 38.5838 12.9391C39.9537 12.3732 39.9399 10.5352 38.8815 9.92615C38.2923 9.58693 37.6445 9.34394 37.0145 9.07722C36.1258 8.70153 35.2016 8.39702 34.3418 7.96641C33.2065 7.39782 32.5058 6.46013 32.3445 5.18762C32.0642 2.96819 33.1701 1.33405 35.3766 0.79051C37.3686 0.299696 39.2654 0.606839 41.0432 1.62494C41.1698 1.69744 41.2276 1.78093 41.2254 1.93647C41.2152 2.6237 41.2209 3.31093 41.2209 3.99859V4.22709H41.2227Z" fill="#A9A29D"/>
    <path d="M50.4948 15.137H48.1314V0.826996H50.4948V15.137Z" fill="#A9A29D"/>
</svg>