<svg xmlns="http://www.w3.org/2000/svg" width="188" height="26" viewBox="0 0 188 26" fill="none">
    <path d="M188 13.4885C187.771 14.3794 187.647 15.3129 187.295 16.1521C186.441 18.186 184.948 19.5416 182.709 19.8833C181.26 20.1047 179.886 19.7552 178.591 19.0878C178.476 19.0282 178.366 18.9616 178.2 18.8683C178.187 19.051 178.168 19.1881 178.168 19.3261C178.166 20.6986 178.171 22.0711 178.165 23.4446C178.16 24.6115 177.356 25.4696 176.296 25.4557C175.25 25.4418 174.473 24.6086 174.472 23.4555C174.466 18.3121 174.468 13.1687 174.472 8.02535C174.472 7.81282 174.488 7.59136 174.55 7.38975C174.72 6.83559 175.227 6.46317 175.808 6.4294C176.413 6.39464 176.902 6.68463 177.149 7.25071C177.238 7.45629 177.281 7.68372 177.35 7.91611C177.408 7.89426 177.461 7.88929 177.491 7.86049C180.601 4.898 186.612 5.89609 187.806 11.5291C187.881 11.8817 187.935 12.2392 188 12.5947V13.4885ZM178.168 13.2244C178.183 13.9831 178.433 14.8372 179.055 15.5592C180.33 17.0419 182.446 16.9297 183.545 15.3159C184.076 14.5353 184.289 13.6593 184.199 12.7278C184.016 10.826 182.675 9.5786 181 9.7226C179.369 9.86263 178.183 11.255 178.169 13.2254L178.168 13.2244Z" fill="#A9A29D"/>
    <path d="M70.2143 9.46439C69.5857 10.1427 69.0583 10.7088 68.5339 11.2768C67.7037 12.1766 66.8754 13.0794 66.0432 13.9772C65.206 14.8809 64.5873 14.8809 63.765 13.9871C62.5096 12.6235 61.2523 11.2619 59.998 9.89739C59.8977 9.78914 59.8103 9.66798 59.718 9.55377C59.6753 9.56767 59.6316 9.58257 59.5889 9.59647C59.5889 9.7653 59.5889 9.93414 59.5889 10.103C59.5889 12.6851 59.5928 15.2662 59.5849 17.8474C59.5829 18.628 59.2194 19.2149 58.5193 19.5605C57.8479 19.8922 57.1974 19.8008 56.6105 19.348C56.1854 19.0202 55.9411 18.5783 55.9044 18.0351C55.8934 17.8702 55.8925 17.7043 55.8925 17.5385C55.8925 12.2759 55.8925 7.01335 55.8895 1.75078C55.8895 1.3734 55.8825 1.01587 56.3135 0.84406C56.7366 0.675229 57.0256 0.915565 57.2709 1.1847C58.3077 2.32183 59.3297 3.47187 60.3546 4.61992C61.6218 6.0391 62.884 7.46423 64.1533 8.88142C64.776 9.57661 65.0292 9.57661 65.6618 8.86851C67.8437 6.42443 70.0207 3.97538 72.2025 1.5313C72.3893 1.32175 72.571 1.07844 72.8093 0.955291C73.0159 0.848033 73.3446 0.794404 73.5363 0.888751C73.7181 0.978132 73.8948 1.28799 73.8958 1.5025C73.9147 6.94682 73.9157 12.3921 73.9058 17.8364C73.9038 18.9636 73.1103 19.7532 72.0566 19.7462C71.0217 19.7403 70.2223 18.911 70.2193 17.8086C70.2113 15.2603 70.2163 12.7119 70.2163 10.1626C70.2163 9.9828 70.2163 9.80304 70.2163 9.46439H70.2143Z" fill="#A9A29D"/>
    <path d="M139.89 10.2042C139.941 4.60792 144.551 0.263987 150.128 0.594698C151.831 0.695996 153.396 1.23626 154.801 2.21448C155.702 2.84115 155.958 3.88393 155.423 4.72312C154.881 5.57125 153.892 5.78278 153.051 5.23259C151.764 4.39042 150.365 3.97828 148.819 4.12526C146.916 4.307 145.456 5.23954 144.534 6.88416C143.259 9.15842 143.237 11.5161 144.516 13.7943C146.294 16.9614 150.628 17.5593 153.483 15.0784C153.917 14.701 154.383 14.4448 154.962 14.5153C155.64 14.5978 156.132 14.9622 156.346 15.6306C156.552 16.2712 156.427 16.871 155.926 17.312C153.893 19.1026 151.546 20.059 148.801 19.8852C144.318 19.6011 140.585 16.0894 139.992 11.5389C139.935 11.097 139.925 10.6491 139.892 10.2042H139.89Z" fill="#A9A29D"/>
    <path d="M9.57712 0.544159C11.5246 0.573953 13.2964 1.12812 14.8993 2.21757C15.7842 2.81941 16.0463 3.85524 15.5408 4.68648C15.0125 5.55745 13.9926 5.78687 13.1404 5.22972C11.8534 4.38855 10.4531 3.97739 8.90775 4.12735C7.02677 4.31009 5.58277 5.22873 4.65122 6.84752C3.41974 8.9887 3.33831 11.2421 4.42876 13.4528C6.127 16.895 10.5414 17.6736 13.5437 15.1054C13.9916 14.723 14.4613 14.441 15.0631 14.5154C15.7454 14.6009 16.239 14.9733 16.4446 15.6357C16.6472 16.2892 16.5081 16.9049 15.9798 17.3548C13.2576 19.6698 10.171 20.5715 6.70599 19.4533C3.1943 18.3211 0.989561 15.8581 0.223862 12.262C-0.93015 6.84057 2.49216 1.77166 7.9037 0.73186C8.4529 0.626588 9.01898 0.60474 9.57612 0.544159H9.57712Z" fill="#A9A29D"/>
    <path d="M168.118 8.30934C168.176 8.02232 168.217 7.86938 168.237 7.71445C168.345 6.88817 168.933 6.336 169.68 6.36678C170.421 6.39757 171.022 6.9994 171.09 7.78099C171.096 7.84654 171.095 7.91308 171.095 7.97962C171.095 11.3553 171.1 14.7309 171.093 18.1065C171.091 19.188 170.263 19.8961 169.29 19.6766C168.715 19.5465 168.372 19.1801 168.235 18.616C168.185 18.4124 168.159 18.2038 168.108 17.9148C167.182 19.1483 165.918 19.631 164.533 19.8276C162.002 20.1871 160.071 19.186 158.708 17.0806C156.922 14.3227 157.211 10.5339 159.343 8.17427C161.607 5.6706 165.399 5.55242 167.799 7.91407C167.891 8.00544 167.964 8.11667 168.118 8.30735V8.30934ZM161.265 13.0942C161.254 13.8768 161.461 14.5978 161.89 15.2513C163.025 16.9803 165.295 17.0717 166.529 15.4092C167.431 14.1926 167.559 12.836 166.929 11.4705C166.027 9.51598 163.468 9.10781 162.101 10.668C161.496 11.3592 161.251 12.1855 161.265 13.0942Z" fill="#A9A29D"/>
    <path d="M86.715 8.226C86.7538 8.02539 86.7885 7.88436 86.8064 7.74235C86.9167 6.88528 87.5165 6.32218 88.2762 6.36885C89.0588 6.41652 89.6517 7.06007 89.6656 7.90125C89.6785 8.66198 89.6686 9.42371 89.6686 10.1844C89.6686 12.8321 89.6736 15.4788 89.6656 18.1265C89.6626 19.1971 88.8195 19.9012 87.8452 19.6718C87.2702 19.5357 86.9365 19.1603 86.8034 18.5982C86.7558 18.3976 86.7309 18.191 86.6952 17.9835C84.984 19.7552 82.9233 20.3064 80.6461 19.6708C78.1513 18.9746 76.8186 17.0867 76.3091 14.6485C75.75 11.975 76.3498 9.56374 78.4334 7.6917C80.7543 5.60713 84.1538 5.73921 86.3853 7.9231C86.4757 8.01148 86.571 8.09491 86.715 8.22699V8.226ZM82.8121 16.599C83.544 16.598 84.1766 16.3378 84.703 15.8453C85.7189 14.8928 86.0139 13.6961 85.8024 12.3584C85.5739 10.9164 84.3693 9.80606 82.9779 9.71966C81.6144 9.63425 80.4137 10.5142 79.9995 11.9323C79.6847 13.0109 79.7811 14.0656 80.3362 15.0498C80.8755 16.0071 81.6749 16.5831 82.8121 16.599Z" fill="#A9A29D"/>
    <path d="M106.746 13.8581C106.746 15.165 106.763 16.472 106.741 17.7779C106.72 19.0859 105.587 19.9767 104.397 19.6351C103.706 19.4365 103.27 18.9637 103.094 18.2675C103.045 18.0769 103.027 17.8743 103.027 17.6776C103.023 12.713 103.02 7.74837 103.027 2.78374C103.029 1.65455 103.701 0.852107 104.673 0.766698C105.87 0.661427 106.74 1.48175 106.744 2.75394C106.753 5.6499 106.747 8.54585 106.747 11.4418C106.747 11.6156 106.747 11.7894 106.747 11.9622C106.796 11.989 106.845 12.0148 106.893 12.0416C106.986 11.9115 107.066 11.7695 107.173 11.6514C108.393 10.2997 109.612 8.94806 110.84 7.60536C111.129 7.28855 111.428 6.97075 111.767 6.71254C112.471 6.17526 113.325 6.29443 113.941 6.97175C114.555 7.64806 114.593 8.57564 114.013 9.21919C113.104 10.2272 112.184 11.2233 111.268 12.2254C111.114 12.3942 110.962 12.566 110.79 12.7587C111.905 14.1064 113.003 15.4282 114.093 16.758C114.777 17.5942 114.66 18.6181 113.817 19.2934C113.057 19.9032 112.2 19.8595 111.46 19.1067C110.893 18.5297 110.384 17.8941 109.854 17.2814C108.945 16.2297 108.039 15.175 107.134 14.1213C107.04 14.013 106.955 13.8978 106.867 13.7856C106.827 13.8094 106.787 13.8342 106.748 13.8581H106.746Z" fill="#A9A29D"/>
    <path d="M118.917 14.2006C118.871 15.586 119.799 16.5652 121.313 16.7529C122.414 16.889 123.489 16.7569 124.504 16.2673C125.372 15.8492 126.2 16.0587 126.629 16.7887C127.067 17.5335 126.85 18.3191 126.056 18.8981C125.215 19.5108 124.253 19.779 123.236 19.8872C121.856 20.0332 120.488 19.9696 119.171 19.5029C116.794 18.6587 115.55 16.9029 115.211 14.4518C115.041 13.2253 115.119 12.0078 115.426 10.811C116.147 8.00447 118.226 6.34694 121.124 6.25359C125.092 6.12448 127.75 8.63907 127.855 12.6235C127.88 13.5501 127.273 14.1936 126.33 14.1986C124.064 14.2095 121.797 14.2026 119.531 14.2026C119.335 14.2026 119.14 14.2026 118.916 14.2026L118.917 14.2006ZM124.228 11.7942C124.318 10.6799 123.107 9.73946 121.586 9.72158C120.209 9.70569 118.856 10.4903 118.914 11.7942H124.228Z" fill="#A9A29D"/>
    <path d="M17.6492 13.0606C17.6383 9.32446 20.713 6.2567 24.4789 6.24776C28.1188 6.23981 31.0852 9.2758 31.0932 13.0179C31.1011 16.757 28.0939 19.936 24.5385 19.9459C20.7736 19.9569 17.6611 16.8464 17.6502 13.0606H17.6492ZM21.3516 13.3178C21.3744 14.1391 21.7042 15.0647 22.4828 15.7967C23.8046 17.0391 25.7104 16.8275 26.7294 15.3259C27.2597 14.5443 27.4663 13.6654 27.3749 12.7358C27.2468 11.4279 26.6867 10.3831 25.3807 9.91735C23.3408 9.19039 21.3466 10.7724 21.3516 13.3178Z" fill="#A9A29D"/>
    <path d="M43.4387 7.81775C44.7646 6.53364 46.3347 6.09567 48.0796 6.27742C50.6737 6.54854 52.3669 8.25473 52.7274 10.9143C52.789 11.3721 52.8258 11.8359 52.8287 12.2977C52.8397 14.1171 52.8377 15.9375 52.8317 17.7579C52.8277 18.8961 52.0382 19.7412 50.9915 19.7462C49.9338 19.7511 49.1482 18.9348 49.1373 17.7798C49.1234 16.1421 49.1472 14.5035 49.1254 12.8658C49.1174 12.2908 49.0698 11.7078 48.9585 11.1437C48.8185 10.4346 48.3368 10.0026 47.6397 9.80599C45.7954 9.28758 44.5282 10.1089 44.269 12.0038C44.2263 12.3136 44.2104 12.6294 44.2094 12.9433C44.2034 14.5482 44.2124 16.1531 44.2044 17.7579C44.1985 18.911 43.4238 19.7402 42.3701 19.7452C41.3135 19.7502 40.519 18.9209 40.516 17.7788C40.509 14.5194 40.511 11.2599 40.516 8.00049C40.517 7.13647 40.9947 6.53563 41.7306 6.4383C42.533 6.33204 43.0753 6.73425 43.3424 7.63204C43.3553 7.67673 43.3861 7.71646 43.4397 7.81875L43.4387 7.81775Z" fill="#A9A29D"/>
    <path d="M131.294 9.68093C130.946 9.68093 130.668 9.68887 130.391 9.67994C129.404 9.64716 128.628 8.8755 128.646 7.9519C128.665 6.9975 129.422 6.26359 130.414 6.24571C130.678 6.24074 130.941 6.24571 131.286 6.24571C131.286 5.84945 131.286 5.47703 131.286 5.10461C131.286 4.32699 131.281 3.54937 131.288 2.77275C131.3 1.65052 132.064 0.8441 133.112 0.833175C134.166 0.822251 134.966 1.6525 134.977 2.78963C134.987 3.91286 134.979 5.03608 134.979 6.24571C135.444 6.24571 135.881 6.24372 136.319 6.24571C137.421 6.25167 138.16 6.92997 138.174 7.94395C138.187 8.91722 137.398 9.66802 136.341 9.68192C135.913 9.68788 135.485 9.68192 135.051 9.68192C135.022 9.77826 134.986 9.83983 134.986 9.89942C135.007 11.7009 135.005 13.5045 135.065 15.305C135.1 16.3567 135.4 16.5911 136.448 16.6C137.464 16.608 138.082 16.9794 138.337 17.7342C138.671 18.7273 137.993 19.8267 136.916 19.8893C136.08 19.9379 135.226 19.8922 134.398 19.7661C133.009 19.5546 132.094 18.6916 131.716 17.3588C131.483 16.5404 131.343 15.6754 131.312 14.8263C131.251 13.144 131.294 11.4566 131.294 9.67994V9.68093Z" fill="#A9A29D"/>
    <path d="M95.8796 7.81674C96.1646 7.59726 96.4199 7.39267 96.684 7.19901C97.6265 6.50681 98.6911 6.21284 99.8511 6.24859C100.806 6.27839 101.532 7.0133 101.564 7.96471C101.594 8.85356 100.87 9.60933 99.9176 9.67885C99.572 9.70467 99.2195 9.68878 98.8798 9.74737C97.4885 9.99069 96.7545 10.819 96.7317 12.2322C96.7019 14.0675 96.7238 15.9038 96.7089 17.739C96.6999 18.9497 95.8458 19.8038 94.7325 19.7442C93.7245 19.6905 92.9936 18.8514 92.9896 17.7043C92.9807 15.2562 92.9866 12.8092 92.9866 10.3611C92.9866 9.55073 92.9678 8.73935 92.9936 7.92995C93.0254 6.9269 93.7573 6.28435 94.6829 6.44424C95.4128 6.57037 95.7416 7.0997 95.8806 7.81674H95.8796Z" fill="#A9A29D"/>
    <path d="M37.0907 13.141C37.0907 14.6793 37.1026 16.2177 37.0867 17.755C37.0748 18.8574 36.3707 19.6658 35.3994 19.7403C34.3367 19.8227 33.3933 18.9825 33.3873 17.8742C33.3684 14.6823 33.3714 11.4904 33.3853 8.29849C33.3903 7.21301 34.1898 6.42645 35.2216 6.42248C36.2505 6.41751 37.0569 7.18321 37.0788 8.27863C37.1115 9.89842 37.0877 11.5202 37.0877 13.141C37.0887 13.141 37.0907 13.141 37.0917 13.141H37.0907Z" fill="#A9A29D"/>
    <path d="M35.2663 4.9665C34.0695 4.9665 33.0893 3.98331 33.0953 2.78758C33.1003 1.572 34.0686 0.580859 35.2454 0.583838C36.4401 0.586818 37.4392 1.61768 37.4213 2.82632C37.4025 4.01608 36.4451 4.9665 35.2673 4.9665H35.2663Z" fill="#A9A29D"/>
</svg>