<svg xmlns="http://www.w3.org/2000/svg" width="146" height="34" viewBox="0 0 146 34" fill="none">
    <path d="M0 2.48309C6.81267 2.51164 13.6253 2.5719 20.4349 2.53701C21.6623 2.53067 22.2268 2.81612 22.3791 4.10063C22.5662 5.67059 22.9753 7.212 23.0515 8.912C21.0819 6.75212 19.6134 4.02134 16.3593 3.81835C14.0662 3.67563 11.7573 3.78981 9.3595 3.78981V16.7015C11.6653 16.4732 13.9774 16.4256 16.1849 15.9245C16.9461 15.75 17.5233 14.4877 18.0434 13.6377C18.3321 13.1683 18.3289 12.5181 18.4589 11.9504C18.608 11.9758 18.7571 12.0012 18.9061 12.0265V22.4454C18.7697 22.4739 18.6365 22.5025 18.5002 22.531C18.3574 22.0235 18.1798 21.5193 18.0783 21.0023C17.7834 19.4799 16.9016 18.4999 15.3666 18.3127C13.4382 18.078 11.494 17.9924 9.25801 17.818C9.25801 18.9375 9.23898 19.8573 9.26118 20.7771C9.32144 23.362 9.31192 25.95 9.48954 28.5286C9.65129 30.8756 10.349 31.5099 12.6739 31.9159C13.1686 32.0015 13.6634 32.0776 14.1582 32.1569C14.1518 32.306 14.1455 32.4519 14.1392 32.6009L0 32.9308V31.9793C3.07014 31.9412 3.83451 31.2435 4.07238 28.2495C4.10093 27.8816 4.09775 27.5105 4.09775 27.1426C4.09775 20.7644 4.11361 14.3862 4.08507 8.00808C4.06604 4.32899 3.59981 3.81201 0 3.11742V2.48309Z" fill="#A9A29D"/>
    <path d="M138.226 11.7633C137.76 8.24911 139.663 4.25919 135.004 2.16591C137.395 1.63942 139.774 1.03681 142.185 0.627669C143.266 0.443714 143.028 1.47132 143.031 2.09931C143.047 7.01217 143.041 11.925 143.041 16.8379C143.041 20.6407 143.041 24.4435 143.05 28.2463C143.054 30.1239 143.18 31.9285 145.676 32.1442C145.759 32.1506 145.819 32.3884 146 32.7215H138.563C138.429 32.0713 138.264 31.2752 138.061 30.2888C137.567 30.6694 137.164 30.9675 136.774 31.2752C132.825 34.3993 127.183 33.4034 124.531 29.1185C120.544 22.6705 124.227 13.4411 131.588 11.8267C133.596 11.3859 135.781 11.7601 138.229 11.7601L138.226 11.7633ZM138.153 23.4381C138.153 23.4381 138.144 23.4381 138.141 23.4381C138.141 21.7983 138.157 20.1618 138.131 18.522C138.125 17.9956 138.03 17.4691 137.957 16.9489C137.614 14.5321 136.285 12.9431 134.376 12.6609C131.832 12.2834 129.704 13.2159 128.778 15.5312C127.075 19.8002 127.313 24.0407 129.879 27.9355C131.41 30.2603 134.598 31.05 136.913 29.9621C137.747 29.5689 138.245 29.0804 138.179 28.037C138.084 26.5114 138.153 24.9732 138.153 23.4413V23.4381Z" fill="#A9A29D"/>
    <path d="M60.8288 2.15958C63.0331 1.65529 65.2374 1.151 67.4417 0.649882C68.6247 0.380293 68.6025 1.18272 68.6025 1.96294C68.6025 5.44857 68.6025 8.93737 68.6025 12.423C68.6025 12.9273 68.6025 13.4347 68.6025 13.8693C70.2517 13.0668 71.7075 12.0646 73.3187 11.6301C77.0676 10.6183 80.715 12.4008 82.4847 15.8166C85.2219 21.0879 83.8137 31.3386 74.451 32.7468C72.2848 33.0735 69.9473 32.6105 67.7462 32.195C66.5282 31.9666 65.5609 31.6653 64.7268 32.8293C64.5745 33.0418 64.2352 33.1243 63.7309 33.4034V31.494C63.7309 23.9392 63.7309 16.3844 63.7309 8.82636C63.7309 6.25416 64.2732 3.42824 60.4165 2.5941C60.5529 2.4482 60.6893 2.3023 60.8256 2.15641L60.8288 2.15958ZM68.6025 21.2592C68.3571 21.2592 68.7877 27.2317 68.8721 27.8942C69.1607 30.1398 70.5753 31.4465 72.64 31.8049C74.6159 32.1474 76.687 31.1705 77.7654 29.3849C79.8872 25.8739 79.2687 19.1183 76.5506 16.0577C74.8348 14.1262 72.1738 13.514 69.9251 14.4909C69.0116 14.8874 68.5073 15.4043 68.5771 16.5112C68.6786 18.0907 68.6025 19.6797 68.6025 21.2623V21.2592Z" fill="#A9A29D"/>
    <path d="M47.2542 32.6929H36.2645C36.6419 32.3535 36.8005 32.0839 36.9781 32.0713C38.954 31.9444 39.3632 30.6091 39.3727 28.9884C39.3949 25.0271 39.3727 21.0657 39.4076 17.1075C39.4202 15.4899 38.7859 14.3767 37.2382 13.8153C36.9654 13.717 36.7339 13.5013 36.0678 13.0732C38.8303 12.4483 41.1932 11.887 43.5719 11.4239C43.7717 11.3859 44.2602 11.9758 44.3299 12.331C44.4568 12.9685 44.3648 13.6472 44.3648 14.4528C45.7096 13.6282 46.7911 12.7306 48.0312 12.2644C49.376 11.7569 50.873 11.4112 52.3034 11.4176C55.215 11.4334 57.1433 13.0922 57.4098 16.0038C57.7142 19.3562 57.6286 22.7467 57.7047 26.1213C57.7238 27.0188 57.6984 27.9164 57.7301 28.814C57.8126 31.1769 57.9394 31.3259 60.2547 32.0966C60.3784 32.1379 60.4577 32.3123 60.7527 32.6453H49.7185C49.8993 32.3726 49.9691 32.1506 50.0611 32.141C52.3954 31.9317 52.7443 30.3205 52.7411 28.4239C52.7348 25.2015 52.7887 21.9823 52.7379 18.7599C52.7094 16.9806 52.443 15.1823 50.5368 14.3672C48.5546 13.5204 46.6928 14.161 44.996 15.2521C44.6503 15.4741 44.4029 16.1116 44.3965 16.562C44.3585 20.628 44.3902 24.694 44.3902 28.7601C44.3902 30.514 44.7962 31.9317 46.9117 32.0649C47.0005 32.0713 47.1083 32.1601 47.1622 32.2394C47.213 32.3155 47.2066 32.4328 47.2574 32.6866L47.2542 32.6929Z" fill="#A9A29D"/>
    <path d="M97.3661 11.2399C103.855 11.2368 107.991 15.566 108.013 22.3882C108.032 28.519 103.456 33.2003 97.3946 33.2416C90.7469 33.2891 86.6016 28.9313 86.6174 21.9061C86.6301 15.7627 91.1846 11.2463 97.3661 11.2399ZM92.0251 20.8976C92.0251 21.5287 91.9775 22.1662 92.0346 22.7942C92.2851 25.6487 92.6689 28.4841 94.7241 30.7074C96.9347 33.0988 100.484 32.5375 101.676 29.5339C102.209 28.1923 102.476 26.6826 102.552 25.2332C102.745 21.5795 102.583 17.9384 100.601 14.6843C99.5989 13.0351 98.1209 12.0963 96.1069 12.3659C94.1405 12.6323 93.0083 13.9041 92.596 15.7405C92.4443 16.417 91.4794 20.8321 92.0251 20.8976Z" fill="#A9A29D"/>
    <path d="M109.7 2.25472C112.4 1.64576 114.721 1.08438 117.071 0.662557C117.287 0.624497 117.912 1.47132 117.921 1.91852C117.997 4.92841 117.963 7.93829 117.963 10.9482C117.963 16.2829 117.963 21.6176 117.963 26.9522C117.963 29.4578 119.022 31.3566 121.141 32.6485H109.986C110.16 32.3884 110.233 32.1664 110.322 32.1601C112.698 31.9825 112.977 30.3174 112.98 28.4493C112.986 21.1069 112.98 13.7678 113.002 6.42542C113.008 4.76348 112.387 3.58046 110.782 2.97785C110.516 2.87636 110.294 2.65752 109.7 2.25472Z" fill="#A9A29D"/>
    <path d="M23.8222 13.0858C26.4642 12.5118 28.7192 12.0329 30.9679 11.5317C32.2429 11.2495 32.0558 12.1534 32.0558 12.8638C32.0653 17.3517 32.0589 21.8396 32.0621 26.3274C32.0621 27.0125 32.0748 27.7007 32.0811 28.3858C32.0938 30.3205 32.4364 32.011 34.8722 32.1632C34.9641 32.1696 35.0403 32.3853 35.2559 32.6866H24.1457C24.3265 32.3948 24.3899 32.1728 24.4787 32.1632C26.7623 31.8841 27.0858 31.2086 27.1714 28.4841C27.2888 24.8431 27.1873 21.1989 27.2285 17.5547C27.2507 15.7278 26.6862 14.3577 24.7927 13.79C24.5643 13.7233 24.3836 13.5013 23.819 13.0827L23.8222 13.0858Z" fill="#A9A29D"/>
    <path d="M26.1945 4.62398C26.3151 2.98425 27.7106 1.89638 29.5184 2.0391C31.2152 2.17231 32.4236 3.45999 32.3253 5.02995C32.2302 6.60626 30.7236 7.84954 29.0363 7.74805C27.2887 7.64338 26.0708 6.30495 26.1945 4.62398Z" fill="#A9A29D"/>
</svg>