<svg xmlns="http://www.w3.org/2000/svg" width="114" height="50" viewBox="0 0 114 50" fill="none">
    <path d="M5.15309 49.3107C5.13641 49.294 5.12243 49.2683 5.10259 49.2624C1.80365 48.2984 0.460991 46.3021 0.716177 42.8433C0.980381 39.2663 2.65668 36.3781 5.10124 33.8915C5.99845 32.9788 7.07646 32.2437 8.06699 31.4224C8.36276 31.1773 8.61434 31.2255 8.95113 31.3936C10.5859 32.2099 12.2383 32.9905 13.8885 33.7752C14.1784 33.9131 14.4868 34.0118 14.8457 34.0272C14.6955 33.9095 14.5486 33.7878 14.3953 33.6747C8.46691 29.3054 5.12739 23.4217 4.15398 16.1705C3.75452 13.1939 3.81043 10.2322 4.72342 7.33636C5.3713 5.28107 6.41595 3.47232 8.17475 2.15892C10.2798 0.587256 12.5724 0.24651 15.0102 1.28047C18.3295 2.68807 20.3439 5.30676 21.6631 8.54654C22.5824 10.8047 23.0581 13.1745 23.1537 15.5922C23.5098 24.5922 21.6478 33.091 17.132 40.9372C15.5386 43.7055 13.581 46.2169 10.7505 47.8251C9.55393 48.5048 8.15266 48.8266 6.84471 49.3107H5.15309Z" fill="#A9A29D"/>
    <path d="M46.4699 18.8386H49.7237V21.9081C51.3486 19.6288 53.4217 18.3145 56.2459 18.341C59.176 18.3685 61.0854 19.8365 62.1724 22.5332C62.4384 22.1388 62.6787 21.7674 62.9335 21.406C65.3095 18.0391 69.3316 17.82 72.0571 18.8688C73.9764 19.6076 74.9714 21.1639 75.4705 23.0619C75.6838 23.8727 75.8623 24.7206 75.8695 25.553C75.9074 30.1928 75.8876 34.8329 75.8876 39.529H72.5859C72.5859 39.259 72.5868 38.9859 72.5859 38.7132C72.5719 34.6116 72.5701 30.5096 72.5305 26.4081C72.5242 25.736 72.4024 25.0532 72.2446 24.3965C71.4971 21.2788 67.9128 20.029 65.3735 22.0257C63.52 23.4833 62.8397 25.5161 62.8284 27.799C62.8108 31.4322 62.8235 35.0655 62.823 38.6988C62.823 38.9552 62.823 39.2121 62.823 39.5272H59.5128C59.5128 39.2126 59.5141 38.9151 59.5128 38.6181C59.4884 34.4232 59.4731 30.2279 59.4276 26.0331C59.4217 25.5026 59.2932 24.9644 59.1584 24.4461C58.7152 22.7419 57.7062 21.5614 55.9122 21.2338C54.0691 20.8971 52.4677 21.3383 51.2521 22.8555C50.0574 24.3469 49.7404 26.0984 49.7359 27.9374C49.7269 31.5237 49.7332 35.1101 49.7332 38.6965C49.7332 38.9706 49.7332 39.2441 49.7332 39.5484H46.4694V18.8386H46.4699Z" fill="#A9A29D"/>
    <path d="M18.1758 44.584C18.3011 42.6927 18.7754 40.898 19.481 39.1861C21.6754 33.8636 23.8652 28.5374 26.1934 23.273C27.4319 20.4722 29.2151 17.9761 31.5095 15.9055C32.1596 15.3186 32.923 14.7917 33.7255 14.4496C35.4311 13.7226 36.6723 14.584 36.7296 16.4346C36.8103 19.0429 35.9297 21.4056 34.7954 23.689C32.9757 27.352 30.5077 30.5616 27.7471 33.5562C27.4225 33.9086 27.2976 34.2543 27.2782 34.7321C27.0983 39.142 25.7286 43.0948 22.5892 46.2999C22.0699 46.8304 21.3449 47.2265 20.642 47.4956C19.6798 47.8648 18.8512 47.414 18.5302 46.4315C18.3367 45.8401 18.2894 45.2015 18.1762 44.5835L18.1758 44.584Z" fill="#A9A29D"/>
    <path d="M99.4116 39.5472H96.1293V18.8546H99.3836V22.0529C99.4346 22.0732 99.4855 22.0935 99.5365 22.1142C99.6911 21.9055 99.8498 21.6995 99.9995 21.4872C102.417 18.0509 106.537 17.7927 109.234 18.8663C111.707 19.8502 112.709 21.9515 113.116 24.4034C113.254 25.2309 113.299 26.0814 113.303 26.922C113.322 30.9294 113.312 34.9372 113.31 38.9446C113.31 39.1285 113.288 39.3119 113.273 39.5395H110.007C110.007 39.2614 110.007 38.991 110.007 38.7206C110.007 35.1581 110.025 31.596 109.995 28.034C109.987 27.055 109.915 26.0616 109.732 25.1016C108.999 21.2529 104.804 19.7885 101.768 22.303C100.252 23.5588 99.4738 25.2125 99.4477 27.156C99.3963 30.9988 99.4188 34.8426 99.4111 38.6859C99.4107 38.9608 99.4111 39.2362 99.4111 39.5472H99.4116Z" fill="#A9A29D"/>
    <path d="M79.5657 35.52C80.9106 36.0234 82.1802 36.6833 83.5274 36.9456C84.6374 37.1619 85.8885 37.1011 86.9895 36.8198C88.9557 36.3177 89.5162 33.9785 88.0951 32.5177C87.6162 32.0255 86.9941 31.6429 86.3813 31.3147C85.288 30.7292 84.1284 30.2659 83.0378 29.675C80.4223 28.2584 79.2866 26.2563 79.6211 23.7742C79.9728 21.1645 81.8534 19.1728 84.6365 18.544C86.7298 18.0712 88.7831 18.2709 90.788 19.0457C91.2042 19.2066 91.362 19.4297 91.3453 19.8741C91.3137 20.73 91.3363 21.5877 91.3363 22.3494C90.0784 21.9668 88.8998 21.4854 87.6744 21.2767C86.8295 21.1329 85.8926 21.2555 85.0459 21.4602C83.9408 21.727 83.2384 22.5122 83.049 23.6719C82.866 24.7946 83.2465 25.7316 84.1572 26.3798C84.8196 26.8512 85.563 27.2168 86.2943 27.5823C87.2154 28.043 88.1762 28.4261 89.0928 28.8957C91.4039 30.0798 92.5211 31.9696 92.2596 34.5703C92.0121 37.0353 90.6235 38.6791 88.3128 39.4723C85.5869 40.4085 82.8691 40.2471 80.2019 39.151C79.7294 38.9567 79.5247 38.6845 79.5531 38.149C79.6009 37.2395 79.5661 36.3254 79.5661 35.52H79.5657Z" fill="#A9A29D"/>
</svg>