<svg xmlns="http://www.w3.org/2000/svg" width="128" height="48" viewBox="0 0 128 48" fill="none">
    <path d="M128 0.931126C127.926 1.06803 127.84 1.20099 127.78 1.34343C125.468 6.85064 123.155 12.3578 120.858 17.8722C120.705 18.2394 120.52 18.3486 120.127 18.3446C117.753 18.3256 115.38 18.3351 113.006 18.3351H112.505C112.57 18.1547 112.611 18.0233 112.664 17.8975C114.995 12.3404 117.33 6.78575 119.648 1.22394C119.776 0.919255 119.934 0.854362 120.238 0.855153C122.825 0.863067 125.412 0.855153 127.999 0.851196V0.930334L128 0.931126Z" fill="#A9A29D"/>
    <path d="M78.146 47.1481C77.9674 47.1053 77.7888 47.0578 77.6087 47.0198C75.4523 46.5601 74.168 45.1878 73.6163 43.15C73.047 41.0481 73.3456 39.0515 74.7997 37.3563C76.0921 35.8487 77.7768 35.3415 79.733 35.7933C80.4088 35.9493 80.9925 36.288 81.4705 36.7921C81.525 36.8491 81.5818 36.9052 81.6411 36.9567C81.6571 36.9701 81.6891 36.9662 81.7804 36.9804C81.7804 36.7296 81.7884 36.4866 81.778 36.2444C81.7684 36.0268 81.8517 35.9398 82.0791 35.9405C83.1721 35.9477 84.2659 35.9516 85.3588 35.939C85.6863 35.935 85.6823 36.1257 85.6823 36.3489C85.6807 38.0337 85.6823 39.7186 85.6823 41.4034C85.6823 43.0487 85.6743 44.694 85.6887 46.3393C85.6919 46.693 85.5959 46.8212 85.2163 46.8109C84.217 46.7848 83.2161 46.7864 82.2168 46.8109C81.8541 46.8196 81.7372 46.6986 81.7756 46.3583C81.7972 46.1667 81.7796 45.9705 81.7796 45.7172C81.6691 45.779 81.6059 45.7972 81.5682 45.8383C80.9124 46.5545 80.0885 46.9383 79.1276 47.0626C79.038 47.0745 78.9523 47.118 78.8642 47.1473H78.1444L78.146 47.1481ZM79.5768 43.6169C80.8756 43.6169 81.9085 42.619 81.9109 41.3647C81.9133 40.1254 80.854 39.1029 79.572 39.1069C78.2773 39.1116 77.2451 40.1151 77.2459 41.3694C77.2459 42.6269 78.2741 43.6169 79.5776 43.6161L79.5768 43.6169Z" fill="#A9A29D"/>
    <path d="M114.237 47.1483C113.835 47.0692 113.43 47.0035 113.032 46.9078C110.563 46.315 109.023 44.4489 108.881 41.9387C108.766 39.9191 109.362 38.1939 110.977 36.8937C113.631 34.7577 117.825 35.394 119.529 38.1765C120.259 39.3683 120.452 40.6796 120.388 42.0479C120.373 42.3645 120.168 42.3193 119.974 42.3193C118.068 42.3209 116.162 42.3201 114.257 42.3201C113.843 42.3201 113.43 42.3249 113.017 42.3201C112.763 42.3178 112.701 42.4183 112.755 42.6644C112.968 43.6275 114.085 44.297 115.206 44.0343C115.636 43.9338 116.013 43.6196 116.42 43.4138C116.544 43.3513 116.712 43.2532 116.816 43.2904C117.829 43.6544 118.833 44.0438 119.838 44.4284C119.872 44.441 119.897 44.479 119.95 44.5265C119.282 45.6012 118.345 46.3427 117.137 46.7297C116.659 46.8824 116.152 46.9465 115.659 47.0534C115.531 47.0811 115.405 47.1167 115.278 47.1483H114.238H114.237ZM116.558 40.1098C116.495 39.4736 116.189 39.032 115.646 38.7866C114.88 38.4416 114.111 38.4693 113.403 38.9473C113.008 39.2148 112.765 39.5899 112.77 40.109H116.558V40.1098Z" fill="#A9A29D"/>
    <path d="M104.954 47.148C104.539 47.0633 104.119 46.996 103.709 46.8923C101.232 46.2679 99.6093 44.2658 99.5308 41.742C99.4548 39.2896 100.375 37.3641 102.662 36.2475C104.266 35.4648 105.945 35.4387 107.635 36.0235C107.903 36.1161 108.005 36.2578 108.001 36.5411C107.986 37.5636 107.995 38.586 107.995 39.6164C107.526 39.4645 107.11 39.2824 106.673 39.1978C105.801 39.03 104.969 39.1471 104.265 39.7383C103.582 40.3136 103.349 41.2522 103.652 42.114C103.956 42.9758 104.798 43.5947 105.858 43.5836C106.426 43.5773 106.993 43.3675 107.557 43.2385C107.681 43.2101 107.793 43.1325 107.954 43.0573C107.97 43.2061 107.993 43.3161 107.994 43.4269C107.997 44.3354 107.986 45.2431 108.001 46.1516C108.006 46.4349 107.911 46.6011 107.636 46.6715C107.147 46.7966 106.66 46.9232 106.172 47.0514C106.058 47.0807 105.947 47.1163 105.834 47.1487H104.954V47.148Z" fill="#A9A29D"/>
    <path d="M45.9335 0.882874H52.7468V11.2602C52.8789 11.1423 52.9366 11.0988 52.9854 11.0466C54.8647 9.02616 57.218 8.58932 59.7939 9.20422C62.305 9.80409 63.6958 11.5609 64.2884 13.9612C64.4821 14.747 64.591 15.5724 64.5975 16.3812C64.6287 20.3698 64.6127 24.3583 64.6127 28.3477C64.6127 28.4506 64.6007 28.5542 64.5926 28.6848H57.7569C57.7497 28.5281 57.7361 28.3762 57.7361 28.2242C57.7345 24.9329 57.7441 21.6423 57.7257 18.351C57.7225 17.831 57.6544 17.2961 57.5175 16.7951C57.2725 15.9001 56.6527 15.354 55.7046 15.2409C54.7302 15.1253 53.907 15.411 53.3449 16.2475C52.9013 16.9083 52.7812 17.6601 52.7804 18.4349C52.7772 21.6866 52.7788 24.9376 52.7788 28.1894C52.7788 28.3453 52.7788 28.5012 52.7788 28.6848H45.9335V0.882874Z" fill="#A9A29D"/>
    <path d="M43.5423 9.45293V28.6826H36.9419V26.9812C36.8226 27.054 36.7634 27.0738 36.7281 27.1133C35.471 28.541 33.8239 29.1393 31.971 29.1931C28.7105 29.288 26.1194 27.9744 24.2425 25.3565C21.3567 21.3331 21.7378 15.4587 25.0768 11.8532C27.459 9.2812 31.1175 8.29673 34.2259 9.39674C35.1699 9.7307 36.0027 10.2372 36.6801 10.9763C36.7305 11.0317 36.789 11.0792 36.9083 11.1908V9.45214H43.5431L43.5423 9.45293ZM33.0368 23.0646C35.3068 23.0646 37.074 21.3236 37.0748 19.0872C37.0756 16.8547 35.3028 15.1018 33.0408 15.0986C30.7459 15.0955 28.9611 16.8381 28.9603 19.0832C28.9603 21.3339 30.7323 23.0654 33.0368 23.0654V23.0646Z" fill="#A9A29D"/>
    <path d="M5.34 35.8745C5.7748 34.8568 6.17195 33.9253 6.57071 32.9939C7.10559 31.7459 7.63407 30.4947 8.18176 29.253C8.29787 28.9895 8.29707 28.7719 8.18256 28.5067C5.53458 22.3561 2.8946 16.2016 0.253028 10.0478C0.176159 9.86819 0.10009 9.68697 0 9.44955C0.172956 9.43768 0.298669 9.42106 0.423581 9.42106C2.63677 9.41948 4.84996 9.4266 7.06316 9.41236C7.37303 9.41078 7.49875 9.52394 7.60604 9.79618C8.97047 13.2672 10.3477 16.7334 11.7217 20.2004C11.7794 20.346 11.8419 20.4909 11.9427 20.733C12.0364 20.5281 12.1013 20.3999 12.1541 20.2661C13.5442 16.7912 14.9382 13.317 16.3147 9.83733C16.442 9.51524 16.6021 9.4084 16.9521 9.41157C19.0587 9.42898 21.1654 9.42027 23.2713 9.42027H23.7398C23.6821 9.58171 23.6461 9.69805 23.5988 9.81042C20.0052 18.366 16.4092 26.9208 12.8227 35.4788C12.6962 35.7803 12.5409 35.8848 12.2094 35.8824C10.0763 35.8674 7.94315 35.8745 5.81003 35.8745H5.3384H5.34Z" fill="#A9A29D"/>
    <path d="M109.088 18.7624C109.091 24.4184 105.228 28.6365 99.8312 29.1382C96.2447 29.4714 93.0755 28.5083 90.6861 25.7701C87.9941 22.6853 87.4792 19.0932 88.9029 15.3366C90.3026 11.6448 93.186 9.6046 97.1047 9.07913C100.525 8.62013 103.602 9.46928 106.117 11.8885C108.153 13.8472 109.047 16.2981 109.087 18.7624H109.088ZM98.6981 15.1791C96.4994 15.1348 94.7546 16.8109 94.7146 19.0038C94.6753 21.2102 96.3424 22.9488 98.534 22.9868C100.766 23.0256 102.507 21.3874 102.554 19.204C102.601 16.947 100.951 15.2234 98.6981 15.1783V15.1791Z" fill="#A9A29D"/>
    <path d="M86.9817 18.4302C86.9921 24.4131 83.1294 28.6382 77.7342 29.1376C74.0997 29.4739 70.9008 28.4847 68.5099 25.6832C65.8771 22.5976 65.3822 19.0261 66.8139 15.3027C68.224 11.6339 71.101 9.63169 74.9981 9.0714C77.2433 8.74851 79.4293 9.04053 81.4543 10.0796C85.1272 11.9647 86.852 15.0479 86.9817 18.4294V18.4302ZM76.5443 22.9878C78.7551 22.9838 80.4534 21.295 80.4582 19.0958C80.463 16.8783 78.7487 15.1713 76.5259 15.1785C74.3111 15.1856 72.6215 16.8696 72.6175 19.0736C72.6135 21.2998 74.3111 22.991 76.5435 22.9878H76.5443Z" fill="#A9A29D"/>
    <path d="M91.4258 37.1892C91.5859 37.0412 91.6492 36.9961 91.6956 36.9375C92.6837 35.7069 94.0025 35.4386 95.4694 35.7449C96.9219 36.0472 97.7627 37.0143 98.1214 38.3992C98.2319 38.8281 98.2904 39.2816 98.2936 39.724C98.3112 41.9485 98.2968 44.1723 98.3112 46.3969C98.3136 46.7356 98.1943 46.8163 97.8732 46.8108C96.8467 46.7933 95.8193 46.7854 94.7936 46.8139C94.3997 46.825 94.334 46.677 94.3364 46.3343C94.3508 44.5577 94.3476 42.7803 94.338 41.0036C94.3364 40.7045 94.3076 40.3951 94.2227 40.1094C94.0562 39.5491 93.647 39.2278 93.0561 39.1834C92.4795 39.1407 91.9663 39.3338 91.7293 39.8704C91.5539 40.2676 91.4482 40.7258 91.4402 41.1595C91.4082 42.8966 91.4178 44.6345 91.4346 46.3715C91.4378 46.7245 91.3265 46.8187 90.979 46.8115C89.9533 46.7902 88.9259 46.7886 87.8994 46.8115C87.5343 46.8203 87.4558 46.6928 87.4574 46.3573C87.4686 43.0272 87.4678 39.6971 87.4574 36.3677C87.4566 36.048 87.5391 35.9309 87.8802 35.9372C88.9331 35.957 89.9869 35.9538 91.0398 35.9388C91.3345 35.9348 91.4546 36.0203 91.4306 36.3187C91.4106 36.5695 91.4266 36.8236 91.4266 37.1884L91.4258 37.1892Z" fill="#A9A29D"/>
    <path d="M65.305 37.1486C65.434 37.0442 65.482 37.0204 65.5092 36.9816C66.4597 35.6371 68.2845 35.3807 69.6882 35.8373C71.0806 36.29 72.0663 37.5673 72.1104 39.1928C72.176 41.627 72.1408 44.0637 72.152 46.4988C72.1528 46.7124 72.0759 46.8058 71.8477 46.8042C70.7411 46.7971 69.6337 46.7939 68.5271 46.8058C68.1956 46.8098 68.2076 46.6111 68.2076 46.3911C68.2076 44.6533 68.2141 42.9154 68.2028 41.1775C68.2004 40.8388 68.1732 40.4898 68.0867 40.1638C67.9226 39.5433 67.4726 39.2086 66.8448 39.1714C66.2563 39.1358 65.707 39.4555 65.4916 40.0261C65.3779 40.3268 65.317 40.6639 65.3138 40.9852C65.297 42.7753 65.2978 44.5662 65.3114 46.3571C65.3138 46.6942 65.229 46.8185 64.8654 46.8106C63.8125 46.7876 62.7587 46.7955 61.705 46.8074C61.4303 46.8106 61.3271 46.7251 61.3271 46.4481C61.3335 43.0642 61.3335 39.681 61.3271 36.2971C61.3271 36.0193 61.4327 35.9362 61.705 35.9386C62.7852 35.9497 63.8653 35.9513 64.9455 35.9378C65.233 35.9339 65.3243 36.0407 65.3074 36.3074C65.2922 36.5543 65.3042 36.8028 65.3042 37.1494L65.305 37.1486Z" fill="#A9A29D"/>
    <path d="M54.1716 34.0522C53.7521 34.0071 53.3709 33.9319 52.9906 33.9327C51.9913 33.9366 51.3531 34.6038 51.3547 35.5898C51.3547 35.8336 51.4308 35.9507 51.699 35.946C52.3516 35.9341 53.0058 35.9562 53.6576 35.9373C53.9635 35.9285 54.0892 36.0164 54.0828 36.3337C54.0667 37.1101 54.0691 37.8864 54.082 38.6628C54.0868 38.9587 54.0019 39.0869 53.6736 39.0735C53.0747 39.049 52.4741 39.0656 51.8744 39.0672C51.3563 39.0672 51.3531 39.0687 51.3523 39.5982C51.3507 41.6114 51.3539 43.6247 51.3491 45.638C51.3483 46.0036 51.4572 46.5227 51.2634 46.6945C51.0416 46.8915 50.5396 46.7942 50.1584 46.7997C49.3985 46.81 48.6379 46.7807 47.8796 46.8116C47.4928 46.8274 47.4168 46.6858 47.4192 46.3391C47.432 44.0892 47.4264 41.8394 47.4256 39.5887C47.4256 39.0687 47.4232 39.0687 46.8963 39.0672C46.2509 39.0656 45.9282 38.7519 45.9282 38.1262C45.9282 37.5738 45.9282 37.0206 45.9282 36.4683C45.9282 36.1185 46.1119 35.9433 46.4791 35.9428C46.6657 35.9428 46.8531 35.9301 47.0388 35.9452C47.3399 35.9697 47.4072 35.8304 47.4368 35.5534C47.5088 34.8776 47.5409 34.1788 47.7499 33.5402C48.3216 31.7912 49.6428 30.9096 51.4428 30.6548C52.2723 30.5377 53.0923 30.5725 53.8906 30.8265C54.0235 30.8693 54.2101 31.0331 54.2125 31.1447C54.2357 32.0777 54.2213 33.0123 54.2157 33.9461C54.2157 33.9818 54.1869 34.0174 54.1716 34.0514V34.0522Z" fill="#A9A29D"/>
    <path d="M114.604 20.0645C117.126 20.0629 119.077 21.9757 119.086 24.4606C119.096 27.0279 117.048 29.0538 114.445 29.0522C111.933 29.0506 109.985 27.1228 109.984 24.6379C109.982 22.0944 112.031 20.0669 114.605 20.0645H114.604Z" fill="#A9A29D"/>
    <path d="M55.5879 41.3434C55.5879 39.699 55.5959 38.0545 55.5815 36.41C55.5783 36.0657 55.6544 35.9257 56.0411 35.936C57.0532 35.9629 58.0669 35.9581 59.079 35.9383C59.4314 35.9312 59.5611 36.0111 59.5587 36.3918C59.5435 39.7203 59.5459 43.0489 59.5555 46.3774C59.5563 46.6924 59.4826 46.8182 59.1359 46.8111C58.1102 46.7905 57.0836 46.7842 56.0579 46.8135C55.6528 46.8245 55.5759 46.6813 55.5799 46.3165C55.5975 44.6593 55.5879 43.0014 55.5879 41.3434Z" fill="#A9A29D"/>
    <path d="M57.5456 34.8269C56.3045 34.8238 55.3388 33.867 55.3484 32.6483C55.3572 31.4675 56.3533 30.502 57.5576 30.506C58.7787 30.51 59.7964 31.5008 59.7892 32.6799C59.7828 33.8765 58.7867 34.8293 57.5456 34.8261V34.8269Z" fill="#A9A29D"/>
</svg>